<?xml version="1.0" encoding="utf-8"?>
<svg version="1.1" xmlns="http://www.w3.org/2000/svg" width="786" height="317">
  <path d="M0 0 C21.71445951 -0.093568 43.42888563 -0.16404025 65.14350605 -0.20724869 C75.22668014 -0.2278471 85.30972874 -0.25591559 95.39282227 -0.30175781 C104.18437909 -0.34170898 112.975845 -0.36745258 121.76749009 -0.37635398 C126.41979271 -0.38155473 131.0718353 -0.39372138 135.72405434 -0.42292023 C140.10959002 -0.45022034 144.49476041 -0.45841572 148.880373 -0.45243073 C150.48349243 -0.45352447 152.08662502 -0.46139109 153.68967056 -0.4768219 C166.450605 -0.59355566 177.28203903 1.04031935 187 10 C200.21910183 23.06859973 204.97607065 37.00137359 205.19024658 55.24224854 C205.1966214 56.52225739 205.1966214 56.52225739 205.203125 57.828125 C205.20882507 58.73898865 205.21452515 59.64985229 205.22039795 60.58831787 C205.2297844 62.50434226 205.2363564 64.42038233 205.24023438 66.33642578 C205.24992788 69.22848409 205.28100756 72.1198269 205.3125 75.01171875 C205.42105087 93.91859508 202.64977296 109.85257907 189 124 C180.13739596 131.30894632 172.44417996 134.12344364 160.94523621 134.12698364 C160.25886198 134.12854363 159.57248775 134.13010362 158.8653143 134.13171089 C156.57840022 134.13568162 154.29155318 134.1325466 152.00463867 134.12939453 C150.36007651 134.13075025 148.71551465 134.13253115 147.07095337 134.13470459 C142.61476448 134.1392568 138.15859879 134.13749893 133.70240951 134.1343255 C129.04105171 134.13179262 124.37969589 134.13414184 119.71833801 134.13571167 C111.89628747 134.13752974 104.07424637 134.13513559 96.25219727 134.13037109 C87.19757082 134.12491966 78.14296685 134.12669897 69.08834094 134.1321975 C61.31841533 134.13672761 53.5484965 134.13737997 45.77857 134.13475883 C41.13572878 134.13319671 36.49289815 134.13300071 31.8500576 134.13629532 C27.49082377 134.13917287 23.13161912 134.13720052 18.77238846 134.13140106 C17.16830939 134.13007324 15.56422788 134.13046795 13.96014977 134.13266373 C11.78001463 134.13537415 9.59997456 134.13199559 7.41984558 134.12698364 C6.19704486 134.12660662 4.97424414 134.12622959 3.71438885 134.12584114 C1 134 1 134 0 133 C-0.09915795 131.10301151 -0.12799314 129.20231213 -0.12939453 127.30273438 C-0.13254669 126.08477173 -0.13569885 124.86680908 -0.13894653 123.61193848 C-0.13715675 122.27254195 -0.1351058 120.93314576 -0.1328125 119.59375 C-0.1334856 118.2299396 -0.13445567 116.86612932 -0.13571167 115.50231934 C-0.13718838 112.64069479 -0.13503497 109.7791014 -0.13037109 106.91748047 C-0.12467381 103.24181386 -0.12795296 99.56622026 -0.13394356 95.89055634 C-0.13754991 93.07337896 -0.13641025 90.25621902 -0.13381577 87.43904114 C-0.1331467 86.08339937 -0.13397421 84.72775604 -0.13629532 83.37211609 C-0.13882301 81.48049956 -0.13429014 79.58887751 -0.12939453 77.69726562 C-0.12859894 76.61884399 -0.12780334 75.54042236 -0.12698364 74.42932129 C0 72 0 72 1 71 C2.78389985 70.89142308 4.57210312 70.85312355 6.35926819 70.84178162 C7.52179611 70.8319928 8.68432404 70.82220398 9.88208008 70.81211853 C11.16888672 70.80636307 12.45569336 70.8006076 13.78149414 70.79467773 C15.14123333 70.78510438 16.50096951 70.77509463 17.86070251 70.76467896 C21.56298536 70.73756493 25.26528105 70.71659068 28.96760869 70.69667697 C32.83271343 70.67485735 36.69777832 70.64744904 40.56285095 70.62062073 C47.88681792 70.57063925 55.21080694 70.52572074 62.53481716 70.48259836 C70.87086277 70.4332725 79.20686842 70.37833718 87.54287541 70.32291877 C104.69521336 70.20901503 121.84758837 70.10219436 139 70 C139 66.7 139 63.4 139 60 C137.00376083 60.01665459 137.00376083 60.01665459 134.9671936 60.03364563 C122.40279624 60.13516654 109.8384825 60.21003525 97.27376747 60.25906086 C90.81466146 60.28511313 84.35588756 60.32043246 77.89697266 60.37719727 C71.65942512 60.4316712 65.42219629 60.46145339 59.18442917 60.47438622 C56.80905519 60.48359836 54.43369791 60.50158755 52.05846024 60.52865028 C48.72170064 60.56514359 45.38624463 60.56993668 42.04931641 60.56762695 C41.0753894 60.58560333 40.1014624 60.60357971 39.09802246 60.62210083 C30.12227573 60.55522295 23.34705515 57.42796979 16.8125 51.3125 C5.44991569 39.10059121 -0.44031675 26.1875327 -0.125 9.5 C-0.11597656 8.5821875 -0.10695312 7.664375 -0.09765625 6.71875 C-0.07432432 4.47888444 -0.04159235 2.23958817 0 0 Z " transform="translate(36,110)" style="fill: rgb(255, 255, 255);"/>
  <path d="M0 0 C21.71445951 -0.093568 43.42888563 -0.16404025 65.14350605 -0.20724869 C75.22668014 -0.2278471 85.30972874 -0.25591559 95.39282227 -0.30175781 C104.18437909 -0.34170898 112.975845 -0.36745258 121.76749009 -0.37635398 C126.41979271 -0.38155473 131.0718353 -0.39372138 135.72405434 -0.42292023 C140.10959002 -0.45022034 144.49476041 -0.45841572 148.880373 -0.45243073 C150.48349243 -0.45352447 152.08662502 -0.46139109 153.68967056 -0.4768219 C168.63666255 -0.61355316 178.78229888 2.41866737 189.8671875 12.73828125 C200.44996161 23.72084905 204.30667564 37.45170635 204.3359375 52.2578125 C204.3459227 54.02788162 204.3459227 54.02788162 204.35610962 55.83370972 C204.36621205 58.32662402 204.37092739 60.81956524 204.37060547 63.3125 C204.37496151 67.09160999 204.41126213 70.86953513 204.44921875 74.6484375 C204.45509108 77.08072521 204.45905769 79.51301842 204.4609375 81.9453125 C204.47530853 83.05931427 204.48967957 84.17331604 204.50448608 85.32107544 C204.42253238 99.67289921 199.442296 112.21599232 190 123 C187.08203125 125.38671875 187.08203125 125.38671875 183.8125 127.6875 C182.74644531 128.45449219 181.68039062 129.22148437 180.58203125 130.01171875 C171.88186122 135.29541241 161.35344945 134.27397783 151.55639648 134.22705078 C149.89991767 134.2264859 148.24343836 134.22680473 146.58695984 134.22793579 C142.11238448 134.2285073 137.63791735 134.21678582 133.16336703 134.20278788 C128.47887652 134.19024672 123.79438325 134.18910735 119.10987854 134.18673706 C110.24907944 134.18053222 101.38832996 134.16413491 92.52755266 134.14403808 C82.43564451 134.12164804 72.34373392 134.11067785 62.25180709 134.10064721 C41.50117092 134.07976777 20.75060273 134.04310401 0 134 C0 113.21 0 92.42 0 71 C45.87 71 91.74 71 139 71 C139 67.37 139 63.74 139 60 C137.00376083 60.01665459 137.00376083 60.01665459 134.9671936 60.03364563 C122.40279624 60.13516654 109.8384825 60.21003525 97.27376747 60.25906086 C90.81466146 60.28511313 84.35588756 60.32043246 77.89697266 60.37719727 C71.65942512 60.4316712 65.42219629 60.46145339 59.18442917 60.47438622 C56.80905519 60.48359836 54.43369791 60.50158755 52.05846024 60.52865028 C48.72170064 60.56514359 45.38624463 60.56993668 42.04931641 60.56762695 C41.0753894 60.58560333 40.1014624 60.60357971 39.09802246 60.62210083 C29.52400317 60.55076525 21.8002697 56.62490458 15 50 C4.64841144 37.75144909 -0.26940235 26.16685698 -0.08203125 10.07421875 C-0.07610962 9.10335327 -0.07018799 8.13248779 -0.06408691 7.13220215 C-0.04872925 4.75468897 -0.0272128 2.37740207 0 0 Z " transform="translate(468,110)" style="fill: rgb(255, 255, 255);"/>
  <path d="M0 0 C0 44.55 0 89.1 0 135 C-21.45 135 -42.9 135 -65 135 C-65 110.58 -65 86.16 -65 61 C-89.42 61 -113.84 61 -139 61 C-138.96038543 84.97938127 -138.96038543 84.97938127 -138.90991211 108.95874023 C-138.90539551 113.5880127 -138.90539551 113.5880127 -138.90455627 115.75257874 C-138.90301689 117.27003777 -138.89949208 118.78749555 -138.89442444 120.3049469 C-138.88714562 122.59842059 -138.88609263 124.89181929 -138.88647461 127.18530273 C-138.884254 128.47991928 -138.88203339 129.77453583 -138.87974548 131.10838318 C-139 134 -139 134 -140 135 C-161.12 135 -182.24 135 -204 135 C-204 90.78 -204 46.56 -204 1 C-182.22 0.835 -160.44 0.67 -138 0.5 C-131.27367187 0.44779297 -124.54734375 0.39558594 -117.6171875 0.34179688 C-109.01953125 0.27832031 -109.01953125 0.27832031 -104.92041016 0.24865723 C-102.21987922 0.22896314 -99.5193616 0.20805592 -96.81884766 0.18615723 C-64.54497736 -0.0715815 -32.2767222 0 0 0 Z " transform="translate(456,109)" style="fill: rgb(255, 255, 255);"/>
  <path d="M0 0 C21.12 0 42.24 0 64 0 C65.28168909 2.56337818 65.12586803 4.37400582 65.12698364 7.24501038 C65.13121338 8.91296913 65.13121338 8.91296913 65.13552856 10.61462402 C65.13249222 12.45292786 65.13249222 12.45292786 65.12939453 14.32836914 C65.13202301 16.25760475 65.13202301 16.25760475 65.13470459 18.22581482 C65.13927274 21.75871825 65.13749201 25.29159255 65.1343255 28.82449651 C65.13179926 32.51560245 65.13414013 36.20670585 65.13571167 39.89781189 C65.13753236 46.09602304 65.13512944 52.29422229 65.13037109 58.49243164 C65.12492627 65.66790948 65.12669313 72.84335892 65.1321975 80.01883608 C65.13672862 86.17086057 65.13737925 92.32287648 65.13475883 98.47490209 C65.13319636 102.15311902 65.13300152 105.83132257 65.13629532 109.50953865 C65.13970787 113.60671815 65.13498433 117.7038483 65.12939453 121.80102539 C65.13141876 123.02858551 65.13344299 124.25614563 65.13552856 125.52090454 C65.13270874 126.63005722 65.12988892 127.7392099 65.12698364 128.88197327 C65.1264181 130.33681421 65.1264181 130.33681421 65.12584114 131.82104588 C65 134 65 134 64 135 C42.88 135 21.76 135 0 135 C0 90.45 0 45.9 0 0 Z " transform="translate(684,109)" style="fill: rgb(255, 255, 255);"/>
  <path d="M0 0 C67.32 0 134.64 0 204 0 C204 3.3 204 6.6 204 10 C136.68 10 69.36 10 0 10 C0 6.7 0 3.4 0 0 Z " transform="translate(468,74)" style="fill: rgb(255, 255, 255);"/>
  <path d="M0 0 C66.99 0 133.98 0 203 0 C203 3.3 203 6.6 203 10 C176.54935964 10.02332569 150.09872081 10.04097755 123.64807224 10.05181217 C111.36751017 10.05697583 99.08695447 10.06401986 86.80639648 10.07543945 C76.10685708 10.08538416 65.40732229 10.09185292 54.70777839 10.09408849 C49.03868058 10.09539597 43.36959599 10.09848411 37.7005024 10.10573006 C32.37119688 10.11248691 27.0419101 10.11461765 21.71260071 10.11310768 C19.75053747 10.11338416 17.78847365 10.11539126 15.82641411 10.11920547 C13.15989244 10.12413749 10.49344269 10.12300012 7.82691956 10.12025452 C7.03996989 10.12316736 6.25302023 10.1260802 5.44222361 10.12908131 C0.11412121 10.11412121 0.11412121 10.11412121 -1 9 C-0.67 6.03 -0.34 3.06 0 0 Z " transform="translate(37,74)" style="fill: rgb(255, 255, 255);"/>
  <path d="M0 0 C66.66 0 133.32 0 202 0 C203 2 203 2 203 10 C135.68 10 68.36 10 -1 10 C-1 3 -1 3 0 0 Z " transform="translate(253,74)" style="fill: rgb(255, 255, 255);"/>
  <path d="M0 0 C1.19215865 -0.00512655 1.19215865 -0.00512655 2.40840131 -0.01035666 C5.08043599 -0.01696283 7.7514735 0.00508498 10.42341614 0.0269165 C12.33516415 0.02804439 14.24691389 0.02741227 16.15866089 0.02514648 C21.35681549 0.02399612 26.55460289 0.04755754 31.75267196 0.07544231 C37.18190777 0.10040237 42.61115146 0.1027937 48.04043579 0.10754395 C58.32521421 0.11998961 68.6098231 0.15283276 78.89452678 0.1929419 C90.60172576 0.23761014 102.30893271 0.2596342 114.01619565 0.27972364 C138.1023066 0.32156397 162.18826692 0.39194693 186.27424622 0.48101807 C186.27424622 3.45101807 186.27424622 6.42101807 186.27424622 9.48101807 C120.60424622 9.48101807 54.93424622 9.48101807 -12.72575378 9.48101807 C-9.63690822 1.75890415 -8.35615506 -0.13049177 0 0 Z " transform="translate(485.7257537841797,52.51898193359375)" style="fill: rgb(255, 255, 255);"/>
  <path d="M0 0 C1.19215865 -0.00512655 1.19215865 -0.00512655 2.40840131 -0.01035666 C5.08043599 -0.01696283 7.7514735 0.00508498 10.42341614 0.0269165 C12.33516415 0.02804439 14.24691389 0.02741227 16.15866089 0.02514648 C21.35681549 0.02399612 26.55460289 0.04755754 31.75267196 0.07544231 C37.18190777 0.10040237 42.61115146 0.1027937 48.04043579 0.10754395 C58.32521421 0.11998961 68.6098231 0.15283276 78.89452678 0.1929419 C90.60172576 0.23761014 102.30893271 0.2596342 114.01619565 0.27972364 C138.1023066 0.32156397 162.18826692 0.39194693 186.27424622 0.48101807 C186.27424622 3.45101807 186.27424622 6.42101807 186.27424622 9.48101807 C120.93424622 9.48101807 55.59424622 9.48101807 -11.72575378 9.48101807 C-10.09116627 1.30808051 -8.11563122 -0.12673569 0 0 Z " transform="translate(53.72575378417969,52.51898193359375)" style="fill: rgb(255, 255, 255);"/>
  <path d="M0 0 C0.75111465 -0.00765109 1.50222929 -0.01530219 2.27610499 -0.02318513 C4.80052763 -0.04387261 7.32404278 -0.03585685 9.848526 -0.02792358 C11.65527186 -0.03661514 13.46201034 -0.04698054 15.26873779 -0.05889893 C20.1819779 -0.08573085 25.09491082 -0.08683066 30.00820994 -0.08177233 C34.10631505 -0.0796364 38.20435755 -0.0893906 42.30244929 -0.09898317 C51.96857175 -0.12119144 61.63453879 -0.12203824 71.30067444 -0.10995483 C81.28072351 -0.09787106 91.26020895 -0.12250319 101.24016184 -0.16509497 C109.80160943 -0.20029274 118.36287735 -0.2123352 126.92439467 -0.20581949 C132.04092795 -0.20218794 137.1570592 -0.20752347 142.27352715 -0.23524857 C147.08444465 -0.26034135 151.89448173 -0.25657996 156.70538521 -0.23042679 C158.47268593 -0.22568193 160.24004801 -0.23121253 162.00727844 -0.24767303 C164.41742265 -0.26850598 166.82458418 -0.25250257 169.23461914 -0.22705078 C169.9368559 -0.24179935 170.63909266 -0.25654792 171.36260933 -0.27174342 C173.32339382 -0.2280674 173.32339382 -0.2280674 176.68080139 0.52139282 C179.38931003 3.6626361 180.68080139 5.34053465 180.68080139 9.52139282 C117.32080139 9.52139282 53.96080139 9.52139282 -11.31919861 9.52139282 C-9.73566482 1.6037239 -7.91605853 -0.08493606 0 0 Z " transform="translate(269.31919860839844,52.478607177734375)" style="fill: rgb(255, 255, 255);"/>
  <path d="M0 0 C1.98 0 3.96 0 6 0 C6.33 0.99 6.66 1.98 7 3 C7.40029922 2.51398819 7.80059845 2.02797638 8.21302795 1.52723694 C10.47732696 -0.40794783 11.64202083 -0.39446769 14.59155273 -0.43579102 C15.51939072 -0.45493057 16.4472287 -0.47407013 17.40318298 -0.49378967 C18.40321854 -0.49712814 19.40325409 -0.50046661 20.43359375 -0.50390625 C21.46307632 -0.51389145 22.4925589 -0.52387665 23.55323792 -0.53416443 C25.73117042 -0.54935664 27.90917277 -0.55638988 30.0871582 -0.5559082 C33.42190358 -0.56246931 36.7536724 -0.61694029 40.08789062 -0.67382812 C42.2031148 -0.68263017 44.31835314 -0.6885844 46.43359375 -0.69140625 C47.93061073 -0.72374107 47.93061073 -0.72374107 49.45787048 -0.75672913 C56.23101432 -0.68957979 56.23101432 -0.68957979 58.54153442 1.38235474 C59.66040039 3.04321289 59.66040039 3.04321289 61 6 C61.9590625 4.7934375 61.9590625 4.7934375 62.9375 3.5625 C65 1 65 1 66 0 C68.5 -0.125 68.5 -0.125 71 0 C73.26706067 2.26706067 72.74409224 8.11189811 73 11 C74.65 7.37 76.3 3.74 78 0 C79.98 0 81.96 0 84 0 C85.98 3.96 87.96 7.92 90 12 C91.3070065 9.92179558 91.3070065 9.92179558 90.3125 7.125 C90 4 90 4 91.375 1.625 C95.05940194 -0.65582025 98.76028479 -0.9085104 103 0 C103.99 1.485 103.99 1.485 105 3 C104.34 4.32 103.68 5.64 103 7 C103.99 7.99 103.99 7.99 105 9 C105.4375 11.9375 105.4375 11.9375 105 15 C101.40761154 18.06121818 98.50314482 18.26761712 93.87304688 17.90820312 C92.79120117 17.79895508 92.79120117 17.79895508 91.6875 17.6875 C90.57665039 17.5956543 90.57665039 17.5956543 89.44335938 17.50195312 C87.62758328 17.34966223 85.81354599 17.17687934 84 17 C84 16.34 84 15.68 84 15 C82.02 15 80.04 15 78 15 C78 15.66 78 16.32 78 17 C75.95863605 17.05451714 73.91684144 17.09302485 71.875 17.125 C70.73804688 17.14820313 69.60109375 17.17140625 68.4296875 17.1953125 C64.94242233 16.99672109 62.2446138 16.2524801 59 15 C58.67 15.66 58.34 16.32 58 17 C50.74 17 43.48 17 36 17 C36 13.37 36 9.74 36 6 C34.68 6 33.36 6 32 6 C32 9.63 32 13.26 32 17 C29.69 17 27.38 17 25 17 C25 13.37 25 9.74 25 6 C23.35 6 21.7 6 20 6 C20.99 7.485 20.99 7.485 22 9 C21.875 12.5625 21.875 12.5625 21 16 C17.32694118 19.01647577 12.68057801 17.99237794 8.25 17.625 C7.45722656 17.56828125 6.66445313 17.5115625 5.84765625 17.453125 C3.89768265 17.31216305 1.94871329 17.1574288 0 17 C-1.54897985 13.9020403 -0.83239539 10.73783448 -0.5625 7.375 C-0.51029297 6.66859375 -0.45808594 5.9621875 -0.40429688 5.234375 C-0.27458793 3.48920013 -0.13795046 1.74454275 0 0 Z M6 7 C7 9 7 9 7 9 Z M7 9 C7.33 9.99 7.66 10.98 8 12 C8.66 11.34 9.32 10.68 10 10 C9.01 9.67 8.02 9.34 7 9 Z M50 5 C50 6.98 50 8.96 50 11 C47.69 11 45.38 11 43 11 C43 11.33 43 11.66 43 12 C45.64 12 48.28 12 51 12 C51 9.69 51 7.38 51 5 C50.67 5 50.34 5 50 5 Z M6 12 C7 14 7 14 7 14 Z " transform="translate(407,256)" style="fill: rgb(255, 255, 255);"/>
  <path d="M0 0 C0.90105469 0.02707031 1.80210938 0.05414063 2.73046875 0.08203125 C3.76107422 0.13423828 3.76107422 0.13423828 4.8125 0.1875 C5.1425 1.8375 5.4725 3.4875 5.8125 5.1875 C6.1425 3.5375 6.4725 1.8875 6.8125 0.1875 C11.4325 0.1875 16.0525 0.1875 20.8125 0.1875 C20.77994792 3.01953125 20.74739583 5.8515625 20.71484375 8.68359375 C20.52637324 11.12771067 20.52637324 11.12771067 21.8125 12.1875 C21.8125 8.2275 21.8125 4.2675 21.8125 0.1875 C23.7925 0.1875 25.7725 0.1875 27.8125 0.1875 C30.1875 3.1875 30.1875 3.1875 31.8125 6.1875 C32.7715625 4.9809375 32.7715625 4.9809375 33.75 3.75 C35.8125 1.1875 35.8125 1.1875 36.8125 0.1875 C38.4625 0.1875 40.1125 0.1875 41.8125 0.1875 C42.3075 6.1275 42.3075 6.1275 42.8125 12.1875 C44.7925 8.2275 46.7725 4.2675 48.8125 0.1875 C50.7925 0.1875 52.7725 0.1875 54.8125 0.1875 C56.7925 4.1475 58.7725 8.1075 60.8125 12.1875 C61.1425 8.2275 61.4725 4.2675 61.8125 0.1875 C66.8125 0.1875 66.8125 0.1875 69.125 2.1875 C69.681875 2.8475 70.23875 3.5075 70.8125 4.1875 C71.1425 2.8675 71.4725 1.5475 71.8125 0.1875 C73.7925 0.1875 75.7725 0.1875 77.8125 0.1875 C78.3075 6.1275 78.3075 6.1275 78.8125 12.1875 C80.7925 8.2275 82.7725 4.2675 84.8125 0.1875 C86.7925 0.1875 88.7725 0.1875 90.8125 0.1875 C93.75283413 5.76515673 96.34262914 11.04076729 97.8125 17.1875 C95.5025 17.1875 93.1925 17.1875 90.8125 17.1875 C90.8125 16.5275 90.8125 15.8675 90.8125 15.1875 C88.8325 15.1875 86.8525 15.1875 84.8125 15.1875 C84.8125 15.8475 84.8125 16.5075 84.8125 17.1875 C79.52310352 18.26696867 75.86493846 18.16884842 70.8125 16.1875 C69.8225 14.7025 69.8225 14.7025 68.8125 13.1875 C68.4825 14.5075 68.1525 15.8275 67.8125 17.1875 C63.5225 17.1875 59.2325 17.1875 54.8125 17.1875 C54.8125 16.5275 54.8125 15.8675 54.8125 15.1875 C52.8325 15.1875 50.8525 15.1875 48.8125 15.1875 C48.8125 15.8475 48.8125 16.5075 48.8125 17.1875 C44.5225 17.1875 40.2325 17.1875 35.8125 17.1875 C35.3175 16.1975 35.3175 16.1975 34.8125 15.1875 C32.38836902 15.65696199 29.98561952 16.14300097 27.59375 16.7578125 C20.47834681 18.48792766 14.0401768 17.93763756 6.8125 17.1875 C3.8870356 16.9638932 3.8870356 16.9638932 1.8125 18.1875 C0.10016312 18.1004796 -1.60925406 17.94652838 -3.3125 17.75 C-4.22257812 17.64816406 -5.13265625 17.54632813 -6.0703125 17.44140625 C-6.76898438 17.35761719 -7.46765625 17.27382813 -8.1875 17.1875 C-8.1875 14.52083333 -8.1875 11.85416667 -8.1875 9.1875 C-8.249375 8.1975 -8.31125 7.2075 -8.375 6.1875 C-8.1875 3.1875 -8.1875 3.1875 -7 1.51171875 C-4.5623161 -0.26926151 -2.98491143 -0.11629525 0 0 Z " transform="translate(92.1875,255.8125)" style="fill: rgb(255, 255, 255);"/>
  <path d="M0 0 C26.45064036 -0.02332569 52.90127919 -0.04097755 79.35192776 -0.05181217 C91.63248983 -0.05697583 103.91304553 -0.06401986 116.19360352 -0.07543945 C126.89314292 -0.08538416 137.59267771 -0.09185292 148.29222161 -0.09408849 C153.96131942 -0.09539597 159.63040401 -0.09848411 165.2994976 -0.10573006 C170.62880312 -0.11248691 175.9580899 -0.11461765 181.28739929 -0.11310768 C183.24946253 -0.11338416 185.21152635 -0.11539126 187.17358589 -0.11920547 C189.84010756 -0.12413749 192.50655731 -0.12300012 195.17308044 -0.12025452 C196.35350494 -0.12462378 196.35350494 -0.12462378 197.55777639 -0.12908131 C202.88587879 -0.11412121 202.88587879 -0.11412121 204 1 C204 4.3 204 7.6 204 11 C182.55 11 161.1 11 139 11 C139 9.02 139 7.04 139 5 C93.13 5 47.26 5 0 5 C0 3.35 0 1.7 0 0 Z " transform="translate(252,94)" style="fill: rgb(255, 255, 255);"/>
  <path d="M0 0 C66.66 0 133.32 0 202 0 C202.33 1.65 202.66 3.3 203 5 C135.68 5 68.36 5 -1 5 C-0.67 3.35 -0.34 1.7 0 0 Z " transform="translate(469,94)" style="fill: rgb(255, 255, 255);"/>
  <path d="M0 0 C66.66 0 133.32 0 202 0 C202.33 1.65 202.66 3.3 203 5 C135.68 5 68.36 5 -1 5 C-0.67 3.35 -0.34 1.7 0 0 Z " transform="translate(37,94)" style="fill: rgb(255, 255, 255);"/>
  <path d="M0 0 C2.31 0 4.62 0 7 0 C8.32 2.97 9.64 5.94 11 9 C11.4125 8.071875 11.825 7.14375 12.25 6.1875 C14.78958785 1.56182213 14.78958785 1.56182213 18 0 C22.29588667 -0.54785599 25.29557195 -0.4696187 29 2 C28.67 3.32 28.34 4.64 28 6 C25.10765685 6.82638376 23.11257569 7 20 7 C20.33 8.32 20.66 9.64 21 11 C21.7425 10.79375 22.485 10.5875 23.25 10.375 C26.32330841 9.95591249 27.42786866 10.38050989 30 12 C30.1546875 10.9790625 30.1546875 10.9790625 30.3125 9.9375 C31.14725019 6.37084011 32.49472754 3.33777806 34 0 C36.31 0 38.62 0 41 0 C43.475 5.445 43.475 5.445 46 11 C46.33 7.37 46.66 3.74 47 0 C48.89510699 -0.08160748 50.79124504 -0.13946459 52.6875 -0.1875 C53.74324219 -0.22230469 54.79898438 -0.25710937 55.88671875 -0.29296875 C59.39065615 0.03676187 61.19698511 0.91415288 64 3 C65.56471233 6.12942465 65.69701958 9.61082223 65 13 C62.72829368 16.2379004 61.37045115 16.92517377 57.4609375 17.71484375 C56.10051119 17.81351459 54.73805372 17.88670396 53.375 17.9375 C52.66730469 17.97415771 51.95960938 18.01081543 51.23046875 18.04858398 C45.41338204 18.23467248 40.38046484 17.28928432 35 15 C35 15.66 35 16.32 35 17 C33.845 16.979375 32.69 16.95875 31.5 16.9375 C28.50734939 16.92158165 25.70338023 17.15312534 22.75 17.625 C19.17272697 17.9827273 17.86259829 18.02767379 15 16 C14.67 16.33 14.34 16.66 14 17 C10.5 17.125 10.5 17.125 7 17 C6.67 16.67 6.34 16.34 6 16 C3.5 15.83333333 3.5 15.83333333 1 16 C0.67 16.33 0.34 16.66 0 17 C-2.33297433 17.04092937 -4.66705225 17.04241723 -7 17 C-6.21086057 14.91570807 -5.41859037 12.83260131 -4.625 10.75 C-4.18414062 9.58984375 -3.74328125 8.4296875 -3.2890625 7.234375 C-2.29409145 4.73790219 -1.25589954 2.37095053 0 0 Z M54 6 C54 7.98 54 9.96 54 12 C55.32 11.67 56.64 11.34 58 11 C58 9.35 58 7.7 58 6 C56.68 6 55.36 6 54 6 Z M12 11 C13 13 13 13 13 13 Z " transform="translate(201,256)" style="fill: rgb(255, 255, 255);"/>
  <path d="M0 0 C21.12 0 42.24 0 64 0 C64 3.63 64 7.26 64 11 C42.88 11.33 21.76 11.66 0 12 C0 8.04 0 4.08 0 0 Z " transform="translate(684,94)" style="fill: rgb(255, 255, 255);"/>
  <path d="M0 0 C4.62 0 9.24 0 14 0 C14.33 0.99 14.66 1.98 15 3 C15.495 2.505 15.99 2.01 16.5 1.5 C19.94076384 -0.56445831 23.13188043 -0.72766606 27 0 C30 2 30 2 32 4 C32.33 2.68 32.66 1.36 33 0 C42.63343558 -0.45552147 42.63343558 -0.45552147 47.1875 1.0625 C49 3 49 3 49.3125 6.4375 C49.209375 7.613125 49.10625 8.78875 49 10 C49 11.32 49 12.64 49 14 C49 14.99 49 15.98 49 17 C43.66666667 17 38.33333333 17 33 17 C32.505 15.02 32.505 15.02 32 13 C31.484375 13.639375 30.96875 14.27875 30.4375 14.9375 C27.22717114 17.65393211 25.1778028 17.92796892 21 18 C16.98480937 16.48483372 15.39631647 15.5944747 13 12 C9.91634129 11.7497843 9.91634129 11.7497843 7 12 C7 13.65 7 15.3 7 17 C4.69 17 2.38 17 0 17 C0 11.39 0 5.78 0 0 Z M13 5 C11.02 5.33 9.04 5.66 7 6 C7 6.33 7 6.66 7 7 C9.31 7 11.62 7 14 7 C13.67 6.34 13.34 5.68 13 5 Z M21 6 C21 7.65 21 9.3 21 11 C22.32 11 23.64 11 25 11 C25.33 9.68 25.66 8.36 26 7 C24.35 6.67 22.7 6.34 21 6 Z M40 6 C40 6.66 40 7.32 40 8 C40.66 8 41.32 8 42 8 C42 7.34 42 6.68 42 6 C41.34 6 40.68 6 40 6 Z " transform="translate(585,256)" style="fill: rgb(255, 255, 255);"/>
  <path d="M0 0 C21.12 0 42.24 0 64 0 C65 4 65 4 64 10 C42.88 10 21.76 10 0 10 C0 6.7 0 3.4 0 0 Z " transform="translate(684,74)" style="fill: rgb(255, 255, 255);"/>
  <path d="M0 0 C21.12 0 42.24 0 64 0 C64 2.97 64 5.94 64 9 C42.88 9 21.76 9 0 9 C0 6.03 0 3.06 0 0 Z " transform="translate(684,53)" style="fill: rgb(255, 255, 255);"/>
  <path d="M0 0 C1.98 0 3.96 0 6 0 C6.66 1.32 7.32 2.64 8 4 C8.45375 3.525625 8.9075 3.05125 9.375 2.5625 C12.39253961 -0.33898039 14.93394192 -0.14630535 19.02734375 -0.23046875 C21 0 21 0 24 2 C23.67 3.32 23.34 4.64 23 6 C20.10765685 6.82638376 18.11257569 7 15 7 C15.33 8.32 15.66 9.64 16 11 C16.78375 10.79375 17.5675 10.5875 18.375 10.375 C19.674375 10.189375 19.674375 10.189375 21 10 C21.66 10.66 22.32 11.32 23 12 C24.98 8.04 26.96 4.08 29 0 C31.31 0 33.62 0 36 0 C37.16887501 2.64487789 38.33519547 5.29083024 39.5 7.9375 C39.83386719 8.69224609 40.16773438 9.44699219 40.51171875 10.22460938 C43 15.88671875 43 15.88671875 43 17 C40.66705225 17.04241723 38.33297433 17.04092937 36 17 C35.67 16.67 35.34 16.34 35 16 C32.5 15.83333333 32.5 15.83333333 30 16 C29.67 16.33 29.34 16.66 29 17 C26.66666667 17 24.33333333 17 22 17 C20.62288118 17.21606968 19.24775521 17.44524908 17.875 17.6875 C13.64016113 18.02901926 12.27128879 17.57737904 9 15 C8.67 14.67 8.34 14.34 8 14 C7.67 14.99 7.34 15.98 7 17 C4.69 17 2.38 17 0 17 C0 11.39 0 5.78 0 0 Z " transform="translate(303,256)" style="fill: rgb(255, 255, 255);"/>
  <path d="M0 0 C0 0.99 0 1.98 0 3 C-57.75 3 -115.5 3 -175 3 C-175 2.34 -175 1.68 -175 1 C-172.18914276 0.06304759 -170.43442613 -0.13664029 -167.52287292 -0.16494751 C-166.60391739 -0.17618149 -165.68496185 -0.18741547 -164.73815918 -0.19898987 C-163.73039429 -0.20631638 -162.72262939 -0.21364288 -161.68432617 -0.22119141 C-160.61970657 -0.2326973 -159.55508698 -0.24420319 -158.45820618 -0.25605774 C-154.9031568 -0.2929816 -151.3480911 -0.32256878 -147.79296875 -0.3515625 C-145.28102933 -0.37473777 -142.76909189 -0.39812836 -140.25715637 -0.42172241 C-134.94644387 -0.47036035 -129.63571608 -0.5152557 -124.32495117 -0.55761719 C-118.99122382 -0.60024303 -113.65760033 -0.64891522 -108.32397461 -0.703125 C-72.19420353 -1.06997501 -36.1209879 -0.8893191 0 0 Z " transform="translate(240,37)" style="fill: rgb(255, 255, 255);"/>
  <path d="M0 0 C0.70493428 -0.00085442 1.40986856 -0.00170885 2.13616449 -0.00258917 C4.50383197 -0.00423937 6.87142898 0.00126991 9.23908997 0.00672913 C10.93409219 0.00701112 12.62909453 0.00685302 14.32409668 0.00628662 C18.93122077 0.00599913 23.53831895 0.01188804 28.145437 0.01886058 C32.95809152 0.02510218 37.7707466 0.02569856 42.58340454 0.02688599 C51.69938036 0.02999691 60.81534422 0.03820711 69.93131477 0.04823548 C80.3084525 0.059404 90.68559081 0.06490893 101.06273305 0.06993091 C122.41164582 0.0803899 143.7605478 0.09798475 165.10945129 0.12025452 C165.10945129 1.11025452 165.10945129 2.10025452 165.10945129 3.12025452 C107.35945129 3.12025452 49.60945129 3.12025452 -9.89054871 3.12025452 C-9.89054871 2.46025452 -9.89054871 1.80025452 -9.89054871 1.12025452 C-6.39983472 -0.04331681 -3.68482738 -0.00268378 0 0 Z " transform="translate(506.8905487060547,36.87974548339844)" style="fill: rgb(255, 255, 255);"/>
  <path d="M0 0 C1.21816406 0.03480469 1.21816406 0.03480469 2.4609375 0.0703125 C3.68683594 0.09738281 3.68683594 0.09738281 4.9375 0.125 C5.87722656 0.15980469 5.87722656 0.15980469 6.8359375 0.1953125 C6.61035156 1.20980469 6.38476562 2.22429687 6.15234375 3.26953125 C5.78213282 7.86288911 6.68949343 9.94861078 8.7734375 14.0078125 C11.8359375 20.07002776 11.8359375 20.07002776 11.8359375 22.1953125 C9.50298975 22.23772973 7.16891183 22.23624187 4.8359375 22.1953125 C4.5059375 21.8653125 4.1759375 21.5353125 3.8359375 21.1953125 C1.3359375 21.02864583 1.3359375 21.02864583 -1.1640625 21.1953125 C-1.4940625 21.5253125 -1.8240625 21.8553125 -2.1640625 22.1953125 C-4.49739583 22.1953125 -6.83072917 22.1953125 -9.1640625 22.1953125 C-9.8240625 22.5253125 -10.4840625 22.8553125 -11.1640625 23.1953125 C-11.81619542 25.21994505 -11.81619542 25.21994505 -12.1640625 27.1953125 C-16.9140625 28.3203125 -16.9140625 28.3203125 -19.1640625 27.1953125 C-18.5040625 25.5453125 -17.8440625 23.8953125 -17.1640625 22.1953125 C-18.06125 22.1025 -18.06125 22.1025 -18.9765625 22.0078125 C-21.1640625 21.1953125 -21.1640625 21.1953125 -22.9765625 19.0703125 C-24.55311276 15.25340135 -24.31218532 13.1419847 -23.1640625 9.1953125 C-21.01315602 6.65333212 -19.4939866 5.40011563 -16.16015625 4.88671875 C-12.32824048 4.76675085 -10.38848887 5.04569492 -7.1640625 7.1953125 C-7.4940625 8.5153125 -7.8240625 9.8353125 -8.1640625 11.1953125 C-11.05640565 12.02169626 -13.05148681 12.1953125 -16.1640625 12.1953125 C-15.8340625 13.5153125 -15.5040625 14.8353125 -15.1640625 16.1953125 C-14.4009375 15.9890625 -13.6378125 15.7828125 -12.8515625 15.5703125 C-10.1640625 15.1953125 -10.1640625 15.1953125 -7.1640625 17.1953125 C-6.46318094 15.45062878 -5.77882241 13.69930089 -5.1015625 11.9453125 C-4.52728516 10.48351562 -4.52728516 10.48351562 -3.94140625 8.9921875 C-3.12896028 6.06901508 -3.37364397 5.00845562 -4.1640625 2.1953125 C-2.1640625 0.1953125 -2.1640625 0.1953125 0 0 Z " transform="translate(697.1640625,250.8046875)" style="fill: rgb(255, 255, 255);"/>
  <path d="M0 0 C1.65 0 3.3 0 5 0 C9 4.10810811 9 4.10810811 9 7 C9.66 7 10.32 7 11 7 C11.309375 6.21625 11.61875 5.4325 11.9375 4.625 C13 2 13 2 14 0 C15.98 0 17.96 0 20 0 C20.33 3.63 20.66 7.26 21 11 C22.65 7.37 24.3 3.74 26 0 C28.31 0 30.62 0 33 0 C35.31 5.61 37.62 11.22 40 17 C37.69 17 35.38 17 33 17 C32.67 16.67 32.34 16.34 32 16 C29.5 15.83333333 29.5 15.83333333 27 16 C26.67 16.33 26.34 16.66 26 17 C23.98035801 17.07244053 21.95832876 17.08377188 19.9375 17.0625 C18.83277344 17.05347656 17.72804688 17.04445313 16.58984375 17.03515625 C15.73519531 17.02355469 14.88054688 17.01195312 14 17 C13.67 16.01 13.34 15.02 13 14 C12.67 14.66 12.34 15.32 12 16 C10.35 15.67 8.7 15.34 7 15 C6.67 15.66 6.34 16.32 6 17 C4.02 17 2.04 17 0 17 C0 11.39 0 5.78 0 0 Z " transform="translate(635,256)" style="fill: rgb(255, 255, 255);"/>
  <path d="M0 0 C11.2 -0.49230769 11.2 -0.49230769 15.25 2 C15.8275 2.66 16.405 3.32 17 4 C17.33 2.68 17.66 1.36 18 0 C22.62 0 27.24 0 32 0 C31.67 3.63 31.34 7.26 31 11 C31.66 11.33 32.32 11.66 33 12 C33 13.65 33 15.3 33 17 C28.05 17 23.1 17 18 17 C17.67 16.01 17.34 15.02 17 14 C16.47921875 14.49113281 15.9584375 14.98226563 15.421875 15.48828125 C12.21257978 17.49150262 10.00077664 17.3000233 6.25 17.1875 C4.1875 17.125625 2.125 17.06375 0 17 C0 11.39 0 5.78 0 0 Z M7 6 C7 7.98 7 9.96 7 12 C8.32 11.67 9.64 11.34 11 11 C10.67 9.35 10.34 7.7 10 6 C9.01 6 8.02 6 7 6 Z " transform="translate(352,256)" style="fill: rgb(255, 255, 255);"/>
  <path d="M0 0 C1.75620163 -0.00422974 1.75620163 -0.00422974 3.54788208 -0.00854492 C4.83370682 -0.00652069 6.11953156 -0.00449646 7.44432068 -0.00241089 C8.81095934 -0.00376578 10.17759763 -0.0055462 11.54423523 -0.00772095 C15.25689247 -0.01228443 18.96952196 -0.01051028 22.68217969 -0.00734186 C26.56366378 -0.00481319 30.44514546 -0.00715717 34.32662964 -0.00872803 C40.8442172 -0.01054802 47.36179343 -0.00814765 53.87937927 -0.00338745 C61.42124163 0.00205712 68.96307696 0.00029041 76.50493866 -0.00521386 C82.97461827 -0.00974711 89.44428973 -0.01039456 95.91397041 -0.00777519 C99.78055797 -0.00621388 103.64713281 -0.00601471 107.51371956 -0.00931168 C111.14735306 -0.01219354 114.78095159 -0.01020886 118.4145813 -0.00441742 C120.38941398 -0.00245762 122.3642496 -0.0054409 124.33908081 -0.00854492 C126.0910527 -0.00431519 126.0910527 -0.00431519 127.87841797 0 C128.89771173 0.00037703 129.91700548 0.00075405 130.96718693 0.0011425 C133.37571716 0.12698364 133.37571716 0.12698364 135.37571716 1.12698364 C135.37571716 1.78698364 135.37571716 2.44698364 135.37571716 3.12698364 C87.85571716 3.12698364 40.33571716 3.12698364 -8.62428284 3.12698364 C-8.62428284 2.46698364 -8.62428284 1.80698364 -8.62428284 1.12698364 C-5.48384393 0.08017067 -3.29589504 0.00121866 0 0 Z " transform="translate(290.62428283691406,36.873016357421875)" style="fill: rgb(255, 255, 255);"/>
  <path d="M0 0 C0.33 0 0.66 0 1 0 C1 2.31 1 4.62 1 7 C-25.0422114 7.04666238 -51.08441656 7.08196052 -77.1266613 7.10362434 C-89.21775584 7.11394932 -101.30882445 7.12803292 -113.39990234 7.15087891 C-123.93501239 7.17077546 -134.47010366 7.18370754 -145.00523198 7.18817699 C-150.58663005 7.19079072 -156.16797441 7.19695933 -161.74935532 7.21146011 C-166.9974223 7.22498509 -172.24541318 7.229233 -177.49349594 7.22621536 C-179.42450371 7.22676781 -181.3555139 7.23077541 -183.28650665 7.23841095 C-185.91333865 7.24829275 -188.53987945 7.24599384 -191.16671753 7.24050903 C-191.93908151 7.24633472 -192.71144548 7.2521604 -193.50721443 7.25816262 C-198.77175758 7.22824242 -198.77175758 7.22824242 -201 5 C-135 5 -69 5 -1 5 C-0.67 3.35 -0.34 1.7 0 0 Z " transform="translate(239,77)" style="fill: rgb(255, 255, 255);"/>
  <path d="M0 0 C1.65 0 3.3 0 5 0 C7.3125 3 7.3125 3 9 6 C11.0245738 4.06745228 12.42105792 2.36841312 14 0 C15.98 0 17.96 0 20 0 C20 5.61 20 11.22 20 17 C14.42289934 17 11.86887975 16.90005063 7 15 C6.67 15.66 6.34 16.32 6 17 C4.02 17 2.04 17 0 17 C0 11.39 0 5.78 0 0 Z " transform="translate(282,256)" style="fill: rgb(255, 255, 255);"/>
  <path d="M0 0 C2.79604421 0.57354753 3.76742708 1.21463705 5.4375 3.5 C5.4375 4.16 5.4375 4.82 5.4375 5.5 C6.0975 5.5 6.7575 5.5 7.4375 5.5 C7.35371094 6.28246094 7.26992188 7.06492187 7.18359375 7.87109375 C7.08175781 8.88300781 6.97992188 9.89492188 6.875 10.9375 C6.77058594 11.94683594 6.66617187 12.95617187 6.55859375 13.99609375 C6.51863281 14.82238281 6.47867187 15.64867187 6.4375 16.5 C6.7675 16.83 7.0975 17.16 7.4375 17.5 C7.47813832 19.16617115 7.480221 20.83388095 7.4375 22.5 C5.29223901 22.69393875 3.14626323 22.87998676 1 23.0625 C-0.19496094 23.16691406 -1.38992188 23.27132813 -2.62109375 23.37890625 C-4.07708984 23.43884766 -4.07708984 23.43884766 -5.5625 23.5 C-7.65748931 21.40501069 -6.83935494 17.12536788 -6.875 14.25 C-6.90400391 13.48558594 -6.93300781 12.72117187 -6.96289062 11.93359375 C-7.00765951 7.94571925 -6.8478001 5.96271361 -4.703125 2.484375 C-2.5625 0.5 -2.5625 0.5 0 0 Z " transform="translate(273.5625,250.5)" style="fill: rgb(255, 255, 255);"/>
  <path d="M0 0 C1.98 0 3.96 0 6 0 C7.875 2 7.875 2 9 4 C9.66 2.68 10.32 1.36 11 0 C12.98 0 14.96 0 17 0 C17 5.61 17 11.22 17 17 C11 17 11 17 9.125 15.5 C8.75375 15.005 8.3825 14.51 8 14 C7.67 14.99 7.34 15.98 7 17 C4.69 17 2.38 17 0 17 C0 11.39 0 5.78 0 0 Z " transform="translate(567,256)" style="fill: rgb(255, 255, 255);"/>
  <path d="M0 0 C12.65513393 -0.27511161 12.65513393 -0.27511161 16 2 C18.50031654 5.75047482 18.53603554 7.55856266 18 12 C16.3125 14.9375 16.3125 14.9375 13 17 C8.57771908 17.41760038 4.46093817 17.22529991 0 17 C0 11.39 0 5.78 0 0 Z M7 6 C7 7.98 7 9.96 7 12 C8.32 11.67 9.64 11.34 11 11 C10.67 9.35 10.34 7.7 10 6 C9.01 6 8.02 6 7 6 Z " transform="translate(519,256)" style="fill: rgb(255, 255, 255);"/>
  <path d="M0 0 C3.48744859 1.92922688 4.69033741 3.10972004 6 6.875 C6 10.77860393 5.19395541 12.78219873 3 16 C-0.08640454 17.97186957 -1.88503046 18.00403402 -5.5625 17.875 C-9.38445833 16.90213788 -10.74841774 16.20417475 -13 13 C-14.15711808 9.37436334 -14.3351709 7.73737598 -12.75 4.25 C-9.22380495 -0.28367935 -5.44698494 -0.84943235 0 0 Z M-6 6 C-6.33 7.32 -6.66 8.64 -7 10 C-5.02 10.99 -5.02 10.99 -3 12 C-1.70366379 10.93354885 -1.70366379 10.93354885 -1.9375 8.4375 C-1.958125 7.633125 -1.97875 6.82875 -2 6 C-3.32 6 -4.64 6 -6 6 Z " transform="translate(721,256)" style="fill: rgb(255, 255, 255);"/>
  <path d="M0 0 C1.79244141 0.01740234 1.79244141 0.01740234 3.62109375 0.03515625 C5.41740234 0.04869141 5.41740234 0.04869141 7.25 0.0625 C8.17683594 0.07410156 9.10367188 0.08570313 10.05859375 0.09765625 C10.99403537 4.1420656 10.80118987 7.01337761 10.05859375 11.09765625 C10.38859375 11.42765625 10.71859375 11.75765625 11.05859375 12.09765625 C11.05859375 13.74765625 11.05859375 15.39765625 11.05859375 17.09765625 C6.43859375 17.09765625 1.81859375 17.09765625 -2.94140625 17.09765625 C-4.07271509 13.70372974 -4.07432565 11.04430753 -4.06640625 7.47265625 C-4.07027344 5.72082031 -4.07027344 5.72082031 -4.07421875 3.93359375 C-3.89290811 0.06207825 -3.89022118 0.12915741 0 0 Z " transform="translate(540.94140625,255.90234375)" style="fill: rgb(255, 255, 255);"/>
  <path d="M0 0 C0.78503906 0.00644531 1.57007813 0.01289063 2.37890625 0.01953125 C4.4375 0.1875 4.4375 0.1875 6.4375 1.1875 C5.7775 3.1675 5.1175 5.1475 4.4375 7.1875 C5.0975 7.5175 5.7575 7.8475 6.4375 8.1875 C6.75 11.5 6.75 11.5 6.4375 15.1875 C4.5 17.1875 4.5 17.1875 1.4375 18.1875 C-1.61777764 18.12108092 -4.5578873 17.73081777 -7.5625 17.1875 C-8.1875 15.375 -8.1875 15.375 -8.5625 13.1875 C-7.9025 12.1975 -7.2425 11.2075 -6.5625 10.1875 C-7.2225 9.5275 -7.8825 8.8675 -8.5625 8.1875 C-8.375 5.1875 -8.375 5.1875 -7.5625 2.1875 C-4.404724 0.082316 -3.60852866 -0.06539344 0 0 Z " transform="translate(399.5625,255.8125)" style="fill: rgb(255, 255, 255);"/>
  <path d="M0 0 C2.875 -0.125 2.875 -0.125 6 0 C8 2 8 2 8.125 5.625 C8.08375 6.73875 8.0425 7.8525 8 9 C1.84765625 9.09765625 1.84765625 9.09765625 0 9 C-0.33 8.67 -0.66 8.34 -1 8 C-1.33 11.3 -1.66 14.6 -2 18 C-3.98 18 -5.96 18 -8 18 C-8 14.37 -8 10.74 -8 7 C-8.99 7 -9.98 7 -11 7 C-11 5.02 -11 3.04 -11 1 C-8.03 1 -5.06 1 -2 1 C-1.67 1.66 -1.34 2.32 -1 3 C-0.67 2.01 -0.34 1.02 0 0 Z " transform="translate(69,255)" style="fill: rgb(255, 255, 255);"/>
  <path d="M0 0 C21.12 0 42.24 0 64 0 C64 0.99 64 1.98 64 3 C42.88 3 21.76 3 0 3 C0 2.01 0 1.02 0 0 Z " transform="translate(684,37)" style="fill: rgb(255, 255, 255);"/>
  <path d="M0 0 C2.31 0 4.62 0 7 0 C7 5.61 7 11.22 7 17 C4.69 17 2.38 17 0 17 C0 11.39 0 5.78 0 0 Z " transform="translate(559,256)" style="fill: rgb(255, 255, 255);"/>
  <path d="M0 0 C2 1 2 1 2 1 Z " transform="translate(256,263)" style="fill: rgb(255, 255, 255);"/>
  <path d="" transform="translate(0,0)" style="fill: rgb(255, 255, 255);"/>
  <path d="" transform="translate(0,0)" style="fill: rgb(255, 255, 255);"/>
  <path d="" transform="translate(0,0)" style="fill: rgb(255, 255, 255);"/>
  <path d="" transform="translate(0,0)" style="fill: rgb(255, 255, 255);"/>
  <path d="" transform="translate(0,0)" style="fill: rgb(255, 255, 255);"/>
  <path d="" transform="translate(0,0)" style="fill: rgb(255, 255, 255);"/>
  <path d="" transform="translate(0,0)" style="fill: rgb(255, 255, 255);"/>
  <path d="" transform="translate(0,0)" style="fill: rgb(255, 255, 255);"/>
  <path d="" transform="translate(0,0)" style="fill: rgb(255, 255, 255);"/>
  <path d="" transform="translate(0,0)" style="fill: rgb(255, 255, 255);"/>
  <path d="" transform="translate(0,0)" style="fill: rgb(255, 255, 255);"/>
  <path d="" transform="translate(0,0)" style="fill: rgb(255, 255, 255);"/>
  <path d="" transform="translate(0,0)" style="fill: rgb(255, 255, 255);"/>
  <path d="" transform="translate(0,0)" style="fill: rgb(255, 255, 255);"/>
  <path d="" transform="translate(0,0)" style="fill: rgb(255, 255, 255);"/>
  <path d="" transform="translate(0,0)" style="fill: rgb(255, 255, 255);"/>
  <path d="" transform="translate(0,0)" style="fill: rgb(255, 255, 255);"/>
  <path d="" transform="translate(0,0)" style="fill: rgb(255, 255, 255);"/>
  <path d="" transform="translate(0,0)" style="fill: rgb(255, 255, 255);"/>
  <path d="" transform="translate(0,0)" style="fill: rgb(255, 255, 255);"/>
  <path d="" transform="translate(0,0)" style="fill: rgb(255, 255, 255);"/>
  <path d="" transform="translate(0,0)" style="fill: rgb(255, 255, 255);"/>
  <path d="" transform="translate(0,0)" style="fill: rgb(255, 255, 255);"/>
  <path d="" transform="translate(0,0)" style="fill: rgb(255, 255, 255);"/>
  <path d="" transform="translate(0,0)" style="fill: rgb(255, 255, 255);"/>
  <path d="" transform="translate(0,0)" style="fill: rgb(255, 255, 255);"/>
  <path d="" transform="translate(0,0)" style="fill: rgb(255, 255, 255);"/>
  <path d="" transform="translate(0,0)" style="fill: rgb(255, 255, 255);"/>
  <path d="" transform="translate(0,0)" style="fill: rgb(255, 255, 255);"/>
  <path d="" transform="translate(0,0)" style="fill: rgb(255, 255, 255);"/>
  <path d="" transform="translate(0,0)" style="fill: rgb(255, 255, 255);"/>
  <path d="" transform="translate(0,0)" style="fill: rgb(255, 255, 255);"/>
  <path d="" transform="translate(0,0)" style="fill: rgb(255, 255, 255);"/>
  <path d="" transform="translate(0,0)" style="fill: rgb(255, 255, 255);"/>
  <path d="" transform="translate(0,0)" style="fill: rgb(255, 255, 255);"/>
  <path d="" transform="translate(0,0)" style="fill: rgb(255, 255, 255);"/>
  <path d="" transform="translate(0,0)" style="fill: rgb(255, 255, 255);"/>
  <path d="" transform="translate(0,0)" style="fill: rgb(255, 255, 255);"/>
  <path d="" transform="translate(0,0)" style="fill: rgb(255, 255, 255);"/>
  <path d="" transform="translate(0,0)" style="fill: rgb(255, 255, 255);"/>
  <path d="" transform="translate(0,0)" style="fill: rgb(255, 255, 255);"/>
  <path d="" transform="translate(0,0)" style="fill: rgb(255, 255, 255);"/>
  <path d="" transform="translate(0,0)" style="fill: rgb(255, 255, 255);"/>
  <path d="" transform="translate(0,0)" style="fill: rgb(255, 255, 255);"/>
  <path d="" transform="translate(0,0)" style="fill: rgb(255, 255, 255);"/>
  <path d="" transform="translate(0,0)" style="fill: rgb(255, 255, 255);"/>
  <path d="" transform="translate(0,0)" style="fill: rgb(255, 255, 255);"/>
  <path d="" transform="translate(0,0)" style="fill: rgb(255, 255, 255);"/>
  <path d="" transform="translate(0,0)" style="fill: rgb(255, 255, 255);"/>
  <path d="" transform="translate(0,0)" style="fill: rgb(255, 255, 255);"/>
  <path d="" transform="translate(0,0)" style="fill: rgb(255, 255, 255);"/>
  <path d="" transform="translate(0,0)" style="fill: rgb(255, 255, 255);"/>
  <path d="" transform="translate(0,0)" style="fill: rgb(255, 255, 255);"/>
  <path d="" transform="translate(0,0)" style="fill: rgb(255, 255, 255);"/>
  <path d="" transform="translate(0,0)" style="fill: rgb(255, 255, 255);"/>
  <path d="" transform="translate(0,0)" style="fill: rgb(255, 255, 255);"/>
</svg>