<?xml version="1.0" encoding="utf-8"?>
<svg version="1.1" xmlns="http://www.w3.org/2000/svg" width="910" height="274">
  <path d="M0 0 C40.26 0 80.52 0 122 0 C122 44.22 122 88.44 122 134 C112.76 134 103.52 134 94 134 C94 138.62 94 143.24 94 148 C93.68966752 151.39095003 93.34349862 154.65184494 92.8125 158 C92.68012939 158.84884766 92.54775879 159.69769531 92.41137695 160.57226562 C90.08311971 174.40846701 84.6755518 188.84571912 76 200 C75.34 200 74.68 200 74 200 C73.7525 200.556875 73.505 201.11375 73.25 201.6875 C64.53175826 217.81624722 43.94486601 225.80354752 27.45019531 230.88110352 C19.00958352 233.39094694 10.78954498 234.64776231 2 236 C1.67 245.9 1.34 255.8 1 266 C-28.76414393 266 -56.50693668 258.95463063 -80 240 C-80.7425 239.4121875 -81.485 238.824375 -82.25 238.21875 C-87.62119933 233.77072556 -91.84230477 228.57678881 -96 223 C-96.40057617 222.4644751 -96.80115234 221.9289502 -97.21386719 221.37719727 C-116.05058596 195.69369705 -120.30959151 162.89577978 -121 132 C-111.76 132 -102.52 132 -93 132 C-93 98.67 -93 65.34 -93 31 C-62.31 31 -31.62 31 0 31 C0 20.77 0 10.54 0 0 Z M1 32 C1 65 1 98 1 132 C31.36 132 61.72 132 93 132 C93 99 93 66 93 32 C62.64 32 32.28 32 1 32 Z M-91 134 C-91 161.64965906 -85.26090528 189.83489602 -65.04296875 210.1796875 C-46.68416661 227.6785785 -24.86612308 232.38251336 0 235 C0 201.67 0 168.34 0 134 C-30.03 134 -60.06 134 -91 134 Z " transform="translate(788,8)" style="fill: rgb(255, 255, 255);"/>
  <path d="M0 0 C13.86 0 27.72 0 42 0 C42.029729 5.18456909 42.029729 5.18456909 42.06005859 10.47387695 C42.12708369 21.91719179 42.20462422 33.36042211 42.28752708 44.80363178 C42.33751654 51.73893878 42.38396023 58.67423475 42.421875 65.60961914 C42.45850195 72.30757332 42.50525032 79.00538821 42.55806351 85.70323753 C42.57653955 88.2535502 42.59167232 90.80388944 42.60334396 93.35424232 C42.62032282 96.93721764 42.64938578 100.51991255 42.68115234 104.1027832 C42.68331253 105.14792084 42.68547272 106.19305847 42.68769836 107.26986694 C42.79008632 116.36050422 43.56623946 125.22630779 47.875 133.375 C48.36742187 134.33148438 48.85984375 135.28796875 49.3671875 136.2734375 C54.51038751 144.86184325 61.55805161 149.15747659 71 152 C82.75068038 154.87238854 94.5341994 152.81026058 105 147 C113.4890726 141.45959978 117.90257051 132.79457061 120.57798576 123.17515182 C121.4711143 118.57177592 121.30046523 113.87833777 121.30297852 109.20556641 C121.31563751 107.45079987 121.31563751 107.45079987 121.32855225 105.6605835 C121.35427056 101.80757224 121.36645373 97.95463742 121.37890625 94.1015625 C121.39508198 91.42352127 121.41211914 88.74550046 121.43040466 86.06747437 C121.47194566 79.74717499 121.50441736 73.42686779 121.53287882 67.10649717 C121.58400588 55.76872112 121.64592234 44.43101142 121.71821922 33.09335077 C121.74719628 28.47213066 121.76730165 23.85091804 121.78553772 19.22964478 C121.79893647 16.82578404 121.81255058 14.42192449 121.82641602 12.01806641 C121.82902939 10.91057037 121.83164276 9.80307434 121.83433533 8.66201782 C121.84123383 7.66106079 121.84813232 6.66010376 121.85523987 5.6288147 C121.86102224 4.31645308 121.86102224 4.31645308 121.86692142 2.97757912 C122 1 122 1 123 0 C126.10251201 -0.08874135 129.1826812 -0.11518455 132.28515625 -0.09765625 C133.21597519 -0.0962413 134.14679413 -0.09482635 135.1058197 -0.09336853 C138.09141191 -0.08775172 141.07693029 -0.0751964 144.0625 -0.0625 C146.08137913 -0.05748716 148.10025943 -0.05292388 150.11914062 -0.04882812 C155.07945572 -0.03777683 160.03971532 -0.02050095 165 0 C165.09402452 15.30057205 165.16426073 30.6011307 165.20724869 45.90192795 C165.22775174 53.00861093 165.25563312 60.11511297 165.30175781 67.22167969 C165.34200608 73.4258797 165.36752148 79.62994851 165.37635398 85.83427548 C165.38150562 89.11033175 165.39554704 92.38593202 165.42292023 95.66188812 C165.63686835 122.35632554 163.4452112 150.67091557 144 171 C143.34 171 142.68 171 142 171 C142 171.66 142 172.32 142 173 C129.57805304 184.55146962 114.50597235 189.72519675 98 192 C97.17113281 192.13019531 96.34226562 192.26039063 95.48828125 192.39453125 C77.40598423 194.90131919 56.49983791 193.0201162 40 185 C39.07445312 184.58105469 38.14890625 184.16210938 37.1953125 183.73046875 C21.2250594 175.88106673 10.10852266 161.50739294 4.26220703 144.90478516 C0.91269185 134.10731178 -0.14886377 123.97202982 -0.11352539 112.73071289 C-0.11367142 111.51049438 -0.11381744 110.29027588 -0.1139679 109.03308105 C-0.11339267 105.70506467 -0.1083947 102.37711115 -0.10139394 99.04910588 C-0.09512139 95.56443166 -0.09455352 92.07975651 -0.09336853 88.59507751 C-0.09026669 82.00439111 -0.08206881 75.4137214 -0.07201904 68.82304233 C-0.06082222 61.3163746 -0.05533847 53.80970605 -0.05032361 46.30303204 C-0.0398852 30.86867673 -0.02155403 15.4343444 0 0 Z " transform="translate(0,9)" style="fill: rgb(255, 255, 255);"/>
  <path d="M0 0 C1.38251953 0.433125 1.38251953 0.433125 2.79296875 0.875 C15.54815776 5.30470905 24.2835763 14.13264218 30.53125 25.87890625 C37.05700765 40.12554578 36.27661745 55.61767717 36.1953125 70.9296875 C36.19157428 73.01718001 36.18873114 75.10467429 36.18673706 77.19216919 C36.17916422 82.64020786 36.15957154 88.08813693 36.1373291 93.53613281 C36.11310024 100.09759762 36.10405941 106.65909942 36.09242249 113.22059631 C36.07314248 123.14714002 36.03477579 133.07344409 36 143 C22.47 143 8.94 143 -5 143 C-5.33 138.71 -5.66 134.42 -6 130 C-6.928125 130.86625 -7.85625 131.7325 -8.8125 132.625 C-23.18594595 144.80930388 -39.89687349 146.19711271 -58 145 C-71.1335287 143.50785907 -81.67684707 137.67162013 -90.16015625 127.546875 C-92.80621503 123.8839656 -94.57727145 120.27604603 -96 116 C-96.4125 114.80375 -96.825 113.6075 -97.25 112.375 C-99.81099767 100.64097431 -98.70520336 86.97620035 -92.5390625 76.5234375 C-91.10663063 74.58201968 -89.60796978 72.79690623 -88 71 C-87.08541016 69.76636719 -87.08541016 69.76636719 -86.15234375 68.5078125 C-78.48226964 59.57099293 -65.23585606 55.93832881 -54 54 C-49.25419312 53.7247432 -44.50298867 53.70696739 -39.75 53.6875 C-38.74288467 53.68207687 -38.74288467 53.68207687 -37.71542358 53.67654419 C-25.74406182 53.65058759 -15.31884668 55.22705111 -4 59 C-5.98036759 47.24295831 -5.98036759 47.24295831 -13 38 C-30.43271308 28.58137777 -50.87745968 33.10242404 -69 38 C-71.00942115 38.63770767 -73.01546236 39.2886247 -75 40 C-77.97334832 33.53742274 -80.05622868 26.84171566 -82.1875 20.0625 C-82.55552734 18.90169922 -82.92355469 17.74089844 -83.30273438 16.54492188 C-84.2049739 13.69759455 -85.10396451 10.84928454 -86 8 C-79.87706336 4.74530134 -73.96272922 2.06602621 -67.25 0.3125 C-66.46544434 0.10536377 -65.68088867 -0.10177246 -64.87255859 -0.31518555 C-44.15649081 -5.62824267 -20.41920373 -7.18037933 0 0 Z M-53 87 C-53.54527344 87.49628906 -54.09054687 87.99257812 -54.65234375 88.50390625 C-57.87211472 92.07831866 -57.27039599 96.82490507 -57.2109375 101.34375 C-56.81318767 106.35245152 -54.69447867 108.35081342 -51.125 111.6875 C-43.81695715 117.09545171 -35.73274254 116.8439205 -27 116 C-18.42131954 114.2571294 -11.978287 110.11655042 -6.62109375 103.2265625 C-3.00439514 97.25333901 -3.62880276 90.7640386 -4 84 C-18.98837528 77.53442635 -40.30928369 74.98204455 -53 87 Z " transform="translate(390,56)" style="fill: rgb(255, 255, 255);"/>
  <path d="M0 0 C1.7951001 0.00302124 1.7951001 0.00302124 3.62646484 0.00610352 C24.8090199 0.2465199 24.8090199 0.2465199 28.875 4.3125 C28.96351529 6.90609322 28.99025945 9.47289691 28.97265625 12.06640625 C28.9712413 12.84185287 28.96982635 13.6172995 28.96836853 14.41624451 C28.96275345 16.90253494 28.95019846 19.3887366 28.9375 21.875 C28.93248694 23.55663933 28.9279237 25.23828006 28.92382812 26.91992188 C28.91277913 31.05081566 28.89550445 35.18164276 28.875 39.3125 C28.00472168 39.10101318 27.13444336 38.88952637 26.23779297 38.67163086 C25.08424316 38.39714111 23.93069336 38.12265137 22.7421875 37.83984375 C21.60378418 37.56648193 20.46538086 37.29312012 19.29248047 37.01147461 C12.8892829 35.70183362 6.65798819 34.98133568 0.75 38.1875 C-2.15822747 40.0010739 -2.15822747 40.0010739 -3.125 42.3125 C-3.455 46.6025 -3.785 50.8925 -4.125 55.3125 C6.435 55.3125 16.995 55.3125 27.875 55.3125 C27.875 66.8625 27.875 78.4125 27.875 90.3125 C17.315 90.3125 6.755 90.3125 -4.125 90.3125 C-4.125 126.2825 -4.125 162.2525 -4.125 199.3125 C-17.985 199.3125 -31.845 199.3125 -46.125 199.3125 C-46.125 163.3425 -46.125 127.3725 -46.125 90.3125 C-51.735 90.3125 -57.345 90.3125 -63.125 90.3125 C-63.125 78.7625 -63.125 67.2125 -63.125 55.3125 C-57.515 55.3125 -51.905 55.3125 -46.125 55.3125 C-46.15980469 54.08015625 -46.19460937 52.8478125 -46.23046875 51.578125 C-46.52615904 36.7470806 -45.48617909 22.01667553 -34.9375 10.5 C-24.96989755 1.31247079 -12.96784167 -0.05831671 0 0 Z " transform="translate(255.125,-0.3125)" style="fill: rgb(255, 255, 255);"/>
  <path d="M0 0 C0.82886719 0.71800781 1.65773438 1.43601562 2.51171875 2.17578125 C3.20652344 2.75972656 3.90132812 3.34367187 4.6171875 3.9453125 C6.32421875 5.48828125 6.32421875 5.48828125 8.51171875 8.17578125 C7.92749782 13.38252213 3.81191032 16.88237329 0.265625 20.41015625 C-3.006169 23.69587278 -6.15474746 27.08270844 -9.30078125 30.48828125 C-9.89826172 31.13345703 -10.49574219 31.77863281 -11.11132812 32.44335938 C-12.57119553 34.02001617 -14.02986218 35.59778463 -15.48828125 37.17578125 C-18.53502164 35.7202869 -20.62878634 34.22250307 -23.05078125 31.86328125 C-31.17420212 24.5765423 -40.77692942 21.78925363 -51.5078125 21.890625 C-58.64686353 22.57365347 -66.06051791 25.48816746 -71.48828125 30.17578125 C-81.71325881 42.98460843 -83.72605985 54.56021664 -82.25 70.796875 C-80.522462 80.58625697 -74.49157099 88.53566761 -66.48828125 94.17578125 C-58.23424842 98.8692509 -46.76114867 100.52834206 -37.48828125 98.17578125 C-30.42633039 95.79299014 -23.08138547 91.86299058 -17.84765625 86.4921875 C-16.48828125 85.17578125 -16.48828125 85.17578125 -14.61328125 85.17578125 C-11.5878844 86.59949742 -9.7953064 88.7614526 -7.48828125 91.17578125 C-6.37188641 92.12351212 -5.24634232 93.06053998 -4.11328125 93.98828125 C-0.7422263 96.8293887 2.09334267 99.97924697 4.93359375 103.34375 C6.3927666 105.03769076 7.90994193 106.61742609 9.51171875 108.17578125 C6.48793331 117.7227892 -4.05493436 124.10547812 -12.453125 128.7109375 C-32.28463012 138.28212723 -56.6565421 139.12116143 -77.48828125 132.17578125 C-92.39365885 126.35083718 -104.54066744 116.45210553 -113.48828125 103.17578125 C-113.92398437 102.54027344 -114.3596875 101.90476562 -114.80859375 101.25 C-117.9227422 96.20664637 -119.82978808 90.75748191 -121.73828125 85.17578125 C-122.12608765 84.05441772 -122.12608765 84.05441772 -122.52172852 82.91040039 C-128.72544308 63.97655598 -125.91740241 42.9501371 -117.48828125 25.17578125 C-111.63883977 13.95504648 -103.54604343 3.62614252 -92.48828125 -2.82421875 C-91.82054687 -3.28183594 -91.1528125 -3.73945312 -90.46484375 -4.2109375 C-64.68792463 -21.2100021 -23.93280323 -19.42703673 0 0 Z " transform="translate(578.48828125,65.82421875)" style="fill: rgb(255, 255, 255);"/>
  <path d="M0 0 C30.03 0 60.06 0 91 0 C91 33 91 66 91 100 C87.7709039 101.61454805 84.24141342 101.12915781 80.69482422 101.11352539 C79.83621796 101.11367142 78.97761169 101.11381744 78.09298706 101.1139679 C75.24686176 101.11326963 72.40080141 101.10548125 69.5546875 101.09765625 C67.58456457 101.09579176 65.61444118 101.09436801 63.64431763 101.09336853 C58.45260341 101.08954576 53.26091706 101.07971751 48.06921387 101.06866455 C42.774011 101.05844528 37.47880363 101.0538698 32.18359375 101.04882812 C21.78905024 101.03809504 11.39452744 101.02102148 1 101 C-0.13335166 98.73329668 -0.12343812 97.51611125 -0.12025452 95.00106812 C-0.12162918 94.16531754 -0.12300385 93.32956696 -0.12442017 92.4684906 C-0.12082489 91.54995804 -0.11722961 90.63142548 -0.11352539 89.68505859 C-0.11367142 88.71916306 -0.11381744 87.75326752 -0.1139679 86.75810242 C-0.11326937 83.55485819 -0.10547978 80.35167161 -0.09765625 77.1484375 C-0.09579186 74.93169181 -0.09436805 72.71494571 -0.09336853 70.49819946 C-0.08954504 64.65546537 -0.07971617 58.81275603 -0.06866455 52.97003174 C-0.05665127 45.96414705 -0.05204739 38.9582541 -0.04621124 31.95236206 C-0.03650435 21.30155748 -0.01734659 10.65080723 0 0 Z " transform="translate(697,40)" style="fill: rgb(255, 255, 255);"/>
  <path d="M0 0 C40.26 0 80.52 0 122 0 C122 44.22 122 88.44 122 134 C112.43 134 102.86 134 93 134 C93 100.34 93 66.68 93 32 C62.76769135 32.03961706 62.76769135 32.03961706 32.53540039 32.09008789 C26.70007324 32.09460449 26.70007324 32.09460449 23.97190857 32.09544373 C22.05861682 32.09698349 20.14532607 32.10050908 18.23204041 32.10557556 C15.34095564 32.11285133 12.44993038 32.11390748 9.55883789 32.11352539 C8.70054666 32.1171235 7.84225542 32.12072161 6.95795536 32.12442875 C1.11402634 32.11402634 1.11402634 32.11402634 0 31 C0 20.77 0 10.54 0 0 Z " transform="translate(788,8)" style="fill: rgb(255, 255, 255);"/>
  <path d="M0 0 C4.1117256 -0.02465746 8.22342278 -0.04283959 12.33520508 -0.05493164 C13.73495228 -0.0599708 15.1346942 -0.06680216 16.53442383 -0.07543945 C18.54245777 -0.0875232 20.55052957 -0.09269807 22.55859375 -0.09765625 C24.37315063 -0.10551147 24.37315063 -0.10551147 26.22436523 -0.11352539 C29 0 29 0 30 1 C30.11480868 2.89009098 30.22195123 4.78097221 30.28955078 6.67333984 C31.23090216 32.99352447 38.65017956 61.01840608 58.41796875 79.60498047 C72.80445218 92.29083947 90.29498702 98.26225023 109 101 C113.29 101.66 117.58 102.32 122 103 C122 113.23 122 123.46 122 134 C92.23585607 134 64.49306332 126.95463063 41 108 C40.2575 107.4121875 39.515 106.824375 38.75 106.21875 C33.37880067 101.77072556 29.15769523 96.57678881 25 91 C24.59942383 90.4644751 24.19884766 89.9289502 23.78613281 89.37719727 C5.04108562 63.81868948 0.44483771 30.81268129 0 0 Z " transform="translate(667,140)" style="fill: rgb(255, 255, 255);"/>
  <path d="M0 0 C31.02 0 62.04 0 94 0 C94 33.33 94 66.66 94 101 C93.67 101 93.34 101 93 101 C93 68 93 35 93 1 C62.97 1 32.94 1 2 1 C2.33 34.33 2.66 67.66 3 102 C32.7 102 62.4 102 93 102 C93 102.33 93 102.66 93 103 C81.16963163 103.04626688 69.33928466 103.08184039 57.50884438 103.10362434 C52.01595497 103.11407763 46.5231273 103.12826493 41.03027344 103.15087891 C35.73294846 103.1725523 30.43568299 103.18455698 25.13831711 103.18975449 C23.11363157 103.19346016 21.08894941 103.20069604 19.06428909 103.21146011 C16.23630898 103.22590194 13.40857724 103.22798102 10.58056641 103.22705078 C9.73683975 103.23424133 8.8931131 103.24143188 8.02381897 103.24884033 C2.22810432 103.22810432 2.22810432 103.22810432 0 101 C-0.24609566 99.17654991 -0.24609566 99.17654991 -0.24050903 96.92514038 C-0.24325836 96.07256149 -0.24600769 95.2199826 -0.24884033 94.34156799 C-0.24164978 93.40433395 -0.23445923 92.46709991 -0.22705078 91.50146484 C-0.22734283 90.51606216 -0.22763489 89.53065948 -0.22793579 88.51539612 C-0.22653864 85.24715472 -0.21095927 81.97913924 -0.1953125 78.7109375 C-0.19158374 76.44935226 -0.18873612 74.18776541 -0.18673706 71.92617798 C-0.17908981 65.96504276 -0.15943194 60.00400453 -0.1373291 54.04290771 C-0.1133032 46.89520268 -0.10409489 39.74746527 -0.09242249 32.59973145 C-0.0730082 21.73308677 -0.03469312 10.86665506 0 0 Z " transform="translate(695,39)" style="fill: rgb(255, 255, 255);"/>
  <path d="M0 0 C13.86 0 27.72 0 42 0 C42 39.6 42 79.2 42 120 C41.67 120 41.34 120 41 120 C41 80.73 41 41.46 41 1 C27.47 1.33 13.94 1.66 0 2 C0.02094727 5.70919678 0.04189453 9.41839355 0.06347656 13.23999023 C0.12980353 25.50543984 0.17416225 37.77088677 0.20724869 50.03646755 C0.22784057 57.47191471 0.25589615 64.90719151 0.30175781 72.3425293 C0.34172947 78.82605978 0.36745733 85.30946682 0.37635398 91.79311711 C0.38155139 95.22361195 0.39369555 98.65375378 0.42292023 102.08413506 C0.45202472 105.92145454 0.45595285 109.75804659 0.45410156 113.59545898 C0.47567322 115.28616013 0.47567322 115.28616013 0.49768066 117.01101685 C0.46175728 123.90820841 -0.62929504 128.96905443 -4 135 C-4.50402344 135.91652344 -5.00804688 136.83304688 -5.52734375 137.77734375 C-5.99269531 138.49019531 -6.45804688 139.20304688 -6.9375 139.9375 C-7.40027344 140.66839844 -7.86304687 141.39929688 -8.33984375 142.15234375 C-10.34583852 144.38489793 -12.17340395 145.08649772 -15 146 C-14.43732422 145.30777344 -14.43732422 145.30777344 -13.86328125 144.6015625 C-5.11116141 133.44646769 -1.70456753 123.23541195 -1.69702148 109.20556641 C-1.68858215 108.03572205 -1.68014282 106.86587769 -1.67144775 105.6605835 C-1.64572944 101.80757224 -1.63354627 97.95463742 -1.62109375 94.1015625 C-1.60491802 91.42352127 -1.58788086 88.74550046 -1.56959534 86.06747437 C-1.52805434 79.74717499 -1.49558264 73.42686779 -1.46712118 67.10649717 C-1.41599412 55.76872112 -1.35407766 44.43101142 -1.28178078 33.09335077 C-1.25280372 28.47213066 -1.23269835 23.85091804 -1.21446228 19.22964478 C-1.20106353 16.82578404 -1.18744942 14.42192449 -1.17358398 12.01806641 C-1.17097061 10.91057037 -1.16835724 9.80307434 -1.16566467 8.66201782 C-1.15876617 7.66106079 -1.15186768 6.66010376 -1.14476013 5.6288147 C-1.14090522 4.75390696 -1.1370503 3.87899921 -1.13307858 2.97757912 C-1 1 -1 1 0 0 Z " transform="translate(123,9)" style="fill: rgb(255, 255, 255);"/>
  <path d="M0 0 C40.26 0 80.52 0 122 0 C122 0.33 122 0.66 122 1 C82.07 1 42.14 1 1 1 C1.33 10.24 1.66 19.48 2 29 C6.20293359 30.0507334 10.05517966 30.17403414 14.34863281 30.20532227 C15.18802399 30.21522186 16.02741516 30.22512146 16.89224243 30.23532104 C19.66250808 30.26686998 22.43279086 30.29166735 25.203125 30.31640625 C27.12555381 30.33698148 29.04797816 30.3579781 30.97039795 30.37937927 C36.02722555 30.43454116 41.08409357 30.48397639 46.14099121 30.53222656 C51.30236403 30.58248454 56.46367821 30.63814818 61.625 30.69335938 C71.7499499 30.80086899 81.87495073 30.90232995 92 31 C92 31.33 92 31.66 92 32 C80.15234827 32.02312202 68.30470186 32.04091437 56.4570322 32.05181217 C50.95629138 32.05704131 45.45556595 32.06413951 39.95483398 32.07543945 C34.6510344 32.08626725 29.34724965 32.0922766 24.04343987 32.09487724 C22.01514388 32.09673169 19.98684874 32.10035267 17.95855904 32.10573006 C15.12803486 32.11293906 12.29757282 32.113991 9.46704102 32.11352539 C8.19605812 32.1189183 8.19605812 32.1189183 6.8993988 32.12442017 C1.11405216 32.11405216 1.11405216 32.11405216 0 31 C0 20.77 0 10.54 0 0 Z " transform="translate(788,8)" style="fill: rgb(255, 255, 255);"/>
  <path d="M0 0 C30.36 0 60.72 0 92 0 C93.50156874 3.00313748 93.09281204 5.79067522 93.0625 9.125 C93.05347656 10.40632812 93.04445313 11.68765625 93.03515625 13.0078125 C93.02355469 13.99523437 93.01195312 14.98265625 93 16 C92.67 16 92.34 16 92 16 C92 11.71 92 7.42 92 3 C91.01 3.33 90.02 3.66 89 4 C88.505 3.505 88.505 3.505 88 3 C85.29246274 2.87485589 82.60917896 2.81392872 79.90014648 2.79467773 C79.05143982 2.78477814 78.20273315 2.77487854 77.32830811 2.76467896 C74.50926551 2.73296753 71.69020602 2.70826861 68.87109375 2.68359375 C66.92195689 2.66303254 64.97282456 2.6420363 63.0236969 2.62062073 C57.88298207 2.56531402 52.74222643 2.5159428 47.60144043 2.46777344 C42.35990753 2.41762103 37.1184342 2.36190237 31.87695312 2.30664062 C21.58468625 2.19895394 11.29236775 2.09753247 1 2 C0.67 1.34 0.34 0.68 0 0 Z " transform="translate(789,140)" style="fill: rgb(255, 255, 255);"/>
  <path d="M0 0 C0.33 0 0.66 0 1 0 C1 32.67 1 65.34 1 99 C5.62 99 10.24 99 15 99 C15 99.33 15 99.66 15 100 C12.68853911 100.36088615 10.37579171 100.71354191 8.0625 101.0625 C6.77472656 101.25972656 5.48695313 101.45695312 4.16015625 101.66015625 C2.59587891 101.82837891 2.59587891 101.82837891 1 102 C-0.95365306 100.04634694 -0.12022124 97.06600248 -0.12442017 94.46598816 C-0.12082489 93.52515884 -0.11722961 92.58432953 -0.11352539 91.61499023 C-0.11367142 90.62973358 -0.11381744 89.64447693 -0.1139679 88.62936401 C-0.11326832 85.35575193 -0.10547385 82.08219596 -0.09765625 78.80859375 C-0.09579223 76.54557832 -0.09436825 74.28256249 -0.09336853 72.01954651 C-0.0895421 66.05021052 -0.07971075 60.08089868 -0.06866455 54.11157227 C-0.05845312 48.02555671 -0.05387149 41.93953727 -0.04882812 35.85351562 C-0.03808859 23.90233311 -0.02101068 11.95116856 0 0 Z " transform="translate(788,142)" style="fill: rgb(255, 255, 255);"/>
  <path d="M0 0 C0 0.33 0 0.66 0 1 C-1.21236328 1.12955078 -1.21236328 1.12955078 -2.44921875 1.26171875 C-7.14560709 1.87921734 -11.04163865 2.45504943 -15.1875 4.8125 C-18.02728049 9.27969533 -18.02728049 9.27969533 -18 21 C-7.44 21 3.12 21 14 21 C14 22.65 14 24.3 14 26 C13.505 25.01 13.505 25.01 13 24 C12.0713916 23.98018066 11.1427832 23.96036133 10.18603516 23.93994141 C6.7454948 23.86191387 3.30540109 23.77522538 -0.13476562 23.68261719 C-1.62458889 23.64430002 -3.11450554 23.60945192 -4.60449219 23.578125 C-6.74448048 23.53253271 -8.88382436 23.47453126 -11.0234375 23.4140625 C-12.31169434 23.3826416 -13.59995117 23.3512207 -14.92724609 23.31884766 C-18 23 -18 23 -20 21 C-20.3359375 18.13671875 -20.3359375 18.13671875 -20.375 14.6875 C-20.40335938 13.55699219 -20.43171875 12.42648438 -20.4609375 11.26171875 C-19.90936214 7.35862195 -18.72275397 5.79231338 -16 3 C-10.83245145 -0.56806924 -6.03653699 -0.3221077 0 0 Z " transform="translate(269,34)" style="fill: rgb(255, 255, 255);"/>
  <path d="M0 0 C0.2475 0.639375 0.495 1.27875 0.75 1.9375 C1.7869712 4.14932797 1.7869712 4.14932797 3.84400558 4.6190176 C7.32478461 5.23410062 10.82428714 5.17963894 14.34863281 5.20532227 C15.18802399 5.21522186 16.02741516 5.22512146 16.89224243 5.23532104 C19.66250808 5.26686998 22.43279086 5.29166735 25.203125 5.31640625 C27.12555381 5.33698148 29.04797816 5.3579781 30.97039795 5.37937927 C36.02722555 5.43454116 41.08409357 5.48397639 46.14099121 5.53222656 C51.30236403 5.58248454 56.46367821 5.63814818 61.625 5.69335938 C71.7499499 5.80086899 81.87495073 5.90232995 92 6 C92 6.33 92 6.66 92 7 C80.15234827 7.02312202 68.30470186 7.04091437 56.4570322 7.05181217 C50.95629138 7.05704131 45.45556595 7.06413951 39.95483398 7.07543945 C34.6510344 7.08626725 29.34724965 7.0922766 24.04343987 7.09487724 C22.01514388 7.09673169 19.98684874 7.10035267 17.95855904 7.10573006 C15.12803486 7.11293906 12.29757282 7.113991 9.46704102 7.11352539 C8.19605812 7.1189183 8.19605812 7.1189183 6.8993988 7.12442017 C1.11405216 7.11405216 1.11405216 7.11405216 0 6 C-0.04080783 4.00041636 -0.04254356 1.99954746 0 0 Z " transform="translate(788,33)" style="fill: rgb(255, 255, 255);"/>
  <path d="M0 0 C1.3921875 0.2784375 1.3921875 0.2784375 2.8125 0.5625 C6.01343771 1.24123881 6.01343771 1.24123881 9 0 C9.33 0.66 9.66 1.32 10 2 C10.66 2 11.32 2 12 2 C12.33 1.34 12.66 0.68 13 0 C15.64 0 18.28 0 21 0 C20.67 1.32 20.34 2.64 20 4 C22.64 4.99 25.28 5.98 28 7 C23.49353533 8.12661617 20.59018503 7.41527149 16.25 6.25 C15.53714844 6.0653418 14.82429687 5.88068359 14.08984375 5.69042969 C9.2626302 4.4130272 4.6136626 2.92235941 0 1 C0 0.67 0 0.34 0 0 Z " transform="translate(737,264)" style="fill: rgb(255, 255, 255);"/>
  <path d="M0 0 C4.1117256 -0.02465746 8.22342278 -0.04283959 12.33520508 -0.05493164 C13.73495228 -0.0599708 15.1346942 -0.06680216 16.53442383 -0.07543945 C18.54245777 -0.0875232 20.55052957 -0.09269807 22.55859375 -0.09765625 C24.37315063 -0.10551147 24.37315063 -0.10551147 26.22436523 -0.11352539 C29 0 29 0 30 1 C30.07258946 3.18639453 30.08373783 5.37500389 30.0625 7.5625 C30.05347656 8.76003906 30.04445313 9.95757812 30.03515625 11.19140625 C30.02355469 12.11824219 30.01195312 13.04507813 30 14 C29.34 13.67 28.68 13.34 28 13 C27.5859375 10.71484375 27.5859375 10.71484375 27.375 7.9375 C27.30023437 7.01839844 27.22546875 6.09929687 27.1484375 5.15234375 C27.09945312 4.44207031 27.05046875 3.73179687 27 3 C23.90049377 2.11126403 21.01495633 1.81456218 17.796875 1.68359375 C16.32734375 1.62075195 16.32734375 1.62075195 14.828125 1.55664062 C13.81234375 1.51732422 12.7965625 1.47800781 11.75 1.4375 C10.71875 1.39431641 9.6875 1.35113281 8.625 1.30664062 C6.0834613 1.20074318 3.54182804 1.09866557 1 1 C1 3.97 1 6.94 1 10 C0.67 10 0.34 10 0 10 C0 6.7 0 3.4 0 0 Z " transform="translate(667,140)" style="fill: rgb(255, 255, 255);"/>
  <path d="M0 0 C1.50156874 3.00313748 1.09281204 5.79067522 1.0625 9.125 C1.05347656 10.40632812 1.04445313 11.68765625 1.03515625 13.0078125 C1.02355469 13.99523437 1.01195312 14.98265625 1 16 C0.67 16 0.34 16 0 16 C0 11.71 0 7.42 0 3 C-0.99 3.33 -1.98 3.66 -3 4 C-3.33 3.67 -3.66 3.34 -4 3 C-6.14386657 2.84141158 -8.29266838 2.74870702 -10.44140625 2.68359375 C-11.74658203 2.64169922 -13.05175781 2.59980469 -14.39648438 2.55664062 C-15.7851533 2.51682392 -17.17382522 2.47711175 -18.5625 2.4375 C-19.95509183 2.39432011 -21.34767028 2.350706 -22.74023438 2.30664062 C-26.16004801 2.20014124 -29.57993763 2.09813077 -33 2 C-33 1.67 -33 1.34 -33 1 C-28.9432275 0.85669424 -24.88642396 0.71430497 -20.82958984 0.57275391 C-19.4503493 0.52450154 -18.07111739 0.47600154 -16.69189453 0.42724609 C-14.70607777 0.35709107 -12.7202267 0.28790901 -10.734375 0.21875 C-9.54038086 0.17685547 -8.34638672 0.13496094 -7.11621094 0.09179688 C-4.74497189 0.02194527 -2.37226766 0 0 0 Z " transform="translate(881,140)" style="fill: rgb(255, 255, 255);"/>
  <path d="M0 0 C0.33 0 0.66 0 1 0 C1.66 3.3 2.32 6.6 3 10 C14.88 10.33 26.76 10.66 39 11 C39 11.33 39 11.66 39 12 C26.46 12 13.92 12 1 12 C-0.26237731 9.47524538 -0.09856404 7.68799534 -0.0625 4.875 C-0.05347656 3.96492187 -0.04445313 3.05484375 -0.03515625 2.1171875 C-0.02355469 1.41851562 -0.01195312 0.71984375 0 0 Z " transform="translate(386,186)" style="fill: rgb(255, 255, 255);"/>
  <path d="M0 0 C6.875 0.875 6.875 0.875 8 2 C8.08851529 4.59359322 8.11525945 7.16039691 8.09765625 9.75390625 C8.0962413 10.52935287 8.09482635 11.3047995 8.09336853 12.10374451 C8.08775345 14.59003494 8.07519846 17.0762366 8.0625 19.5625 C8.05748694 21.24413933 8.0529237 22.92578006 8.04882812 24.60742188 C8.03777913 28.73831566 8.02050445 32.86914276 8 37 C6.68 36.34 5.36 35.68 4 35 C4.99 35 5.98 35 7 35 C7 24.77 7 14.54 7 4 C5.35 3.67 3.7 3.34 2 3 C2 2.34 2 1.68 2 1 C1.34 0.67 0.68 0.34 0 0 Z " transform="translate(276,2)" style="fill: rgb(255, 255, 255);"/>
  <path d="M0 0 C0.99257813 0.32484375 1.98515625 0.6496875 3.0078125 0.984375 C6.95822021 2.1085232 10.78486276 2.30521882 14.875 2.25 C15.92010742 2.24419922 15.92010742 2.24419922 16.98632812 2.23828125 C22.25994388 2.14997885 26.9443031 1.44448483 32 0 C30.36295987 2.41980875 29.48742524 3.56711631 27 5 C22.6963981 5.4978303 18.49663989 5.14805767 14.1875 4.8125 C12.43276367 4.70711914 12.43276367 4.70711914 10.64257812 4.59960938 C7.75937857 4.42308695 4.87995889 4.22246294 2 4 C1.34 2.68 0.68 1.36 0 0 Z " transform="translate(340,169)" style="fill: rgb(255, 255, 255);"/>
  <path d="M0 0 C8.31002921 4.1550146 12.69804212 9.89246399 17 18 C14.03824877 17.38722388 12.61941217 16.74627478 10 15 C9.6596875 13.39125 9.6596875 13.39125 9.3125 11.75 C7.69378975 7.12511358 5.67537153 5.85678044 1.6796875 3.26171875 C1.12539063 2.84535156 0.57109375 2.42898437 0 2 C0 1.34 0 0.68 0 0 Z " transform="translate(402,62)" style="fill: rgb(255, 255, 255);"/>
  <path d="M0 0 C0 0.66 0 1.32 0 2 C-0.61746094 2.09796875 -1.23492187 2.1959375 -1.87109375 2.296875 C-7.39230842 3.27170133 -12.01638079 4.69489993 -16.9921875 7.29296875 C-19.4018291 8.14150013 -20.62646102 7.83552829 -23 7 C-15.73731205 3.09966758 -8.39322719 -0.29816082 0 0 Z " transform="translate(336,111)" style="fill: rgb(255, 255, 255);"/>
  <path d="M0 0 C1.65 0 3.3 0 5 0 C4.01 1.98 3.02 3.96 2 6 C2.66 6 3.32 6 4 6 C4.66 7.65 5.32 9.3 6 11 C1.61105071 7.73279209 -2.75259665 4.45101522 -7 1 C-4.69 1.33 -2.38 1.66 0 2 C0 1.34 0 0.68 0 0 Z " transform="translate(554,90)" style="fill: rgb(255, 255, 255);"/>
  <path d="M0 0 C0.66 0 1.32 0 2 0 C2 0.99 2 1.98 2 3 C1.01 3 0.02 3 -1 3 C-1.12375 3.639375 -1.2475 4.27875 -1.375 4.9375 C-1.58125 5.618125 -1.7875 6.29875 -2 7 C-2.99 7.495 -2.99 7.495 -4 8 C-5.13350534 10.01669827 -5.13350534 10.01669827 -6 12 C-6.66 12 -7.32 12 -8 12 C-8.12375 12.78375 -8.2475 13.5675 -8.375 14.375 C-9 17 -9 17 -11 19 C-10.69454966 12.89099313 -7.71579837 9.53532282 -4 5 C-3.2575 4.01 -2.515 3.02 -1.75 2 C-1.1725 1.34 -0.595 0.68 0 0 Z " transform="translate(306,122)" style="fill: rgb(255, 255, 255);"/>
  <path d="M0 0 C1.32 0 2.64 0 4 0 C3.48594831 4.96916636 2.76615118 9.29026351 1 14 C-0.06546953 10.8035914 -0.07427838 8.34252724 0 5 C-0.99 4.67 -1.98 4.34 -3 4 C-2.67 3.34 -2.34 2.68 -2 2 C-1.34 2 -0.68 2 0 2 C0 1.34 0 0.68 0 0 Z " transform="translate(875,171)" style="fill: rgb(255, 255, 255);"/>
  <path d="M0 0 C0.70125 0.721875 1.4025 1.44375 2.125 2.1875 C4.92770745 4.99823813 7.92262792 7.49516226 11 10 C7.30581799 11.231394 4.7943739 10.64432764 1 10 C1.33 8.35 1.66 6.7 2 5 C1.34 5 0.68 5 0 5 C0 3.35 0 1.7 0 0 Z " transform="translate(500,149)" style="fill: rgb(255, 255, 255);"/>
  <path d="M0 0 C1.216875 -0.020625 2.43375 -0.04125 3.6875 -0.0625 C4.71423828 -0.07990234 4.71423828 -0.07990234 5.76171875 -0.09765625 C8 0 8 0 13 1 C13 5.29 13 9.58 13 14 C12.67 14 12.34 14 12 14 C11.67 10.37 11.34 6.74 11 3 C6.545 3.495 6.545 3.495 2 4 C1.34 2.68 0.68 1.36 0 0 Z " transform="translate(776,242)" style="fill: rgb(255, 255, 255);"/>
  <path d="M0 0 C1.32 0.33 2.64 0.66 4 1 C-0.30635874 4.12211008 -4.73783128 6.86021852 -10 8 C-12.2421875 7.57421875 -12.2421875 7.57421875 -14 7 C-9.48649253 3.47726246 -6.71658336 2.54267333 -1 3 C-0.67 2.01 -0.34 1.02 0 0 Z " transform="translate(565,191)" style="fill: rgb(255, 255, 255);"/>
  <path d="M0 0 C1.32 0.33 2.64 0.66 4 1 C2.92456217 1.98783194 1.83926783 2.96493943 0.75 3.9375 C-0.15492188 4.75541016 -0.15492188 4.75541016 -1.078125 5.58984375 C-3.08467305 7.06212799 -4.57002449 7.57529189 -7 8 C-7 6.35 -7 4.7 -7 3 C-2.25 1.875 -2.25 1.875 0 3 C0 2.01 0 1.02 0 0 Z " transform="translate(849,218)" style="fill: rgb(255, 255, 255);"/>
  <path d="M0 0 C0.33 0.66 0.66 1.32 1 2 C0.43410156 2.33773437 -0.13179687 2.67546875 -0.71484375 3.0234375 C-1.44832031 3.46945313 -2.18179688 3.91546875 -2.9375 4.375 C-3.66839844 4.81585938 -4.39929688 5.25671875 -5.15234375 5.7109375 C-7.13772272 6.8773984 -7.13772272 6.8773984 -8 9 C-11.34510352 10.62734766 -13.18835834 11 -17 11 C-17 10.34 -17 9.68 -17 9 C-16.443125 8.76925781 -15.88625 8.53851563 -15.3125 8.30078125 C-9.87075482 5.97517056 -4.92627992 3.27523788 0 0 Z " transform="translate(558,155)" style="fill: rgb(255, 255, 255);"/>
  <path d="M0 0 C0.66 0 1.32 0 2 0 C2.185625 1.7015625 2.185625 1.7015625 2.375 3.4375 C2.684375 5.2009375 2.684375 5.2009375 3 7 C3.66 7.33 4.32 7.66 5 8 C5 10.64 5 13.28 5 16 C3.26453924 13.39680887 2.34824767 11.47732763 1.375 8.5625 C1.11460938 7.80066406 0.85421875 7.03882813 0.5859375 6.25390625 C0 4 0 4 0 0 Z " transform="translate(3,145)" style="fill: rgb(255, 255, 255);"/>
  <path d="M0 0 C-0.75 1.9375 -0.75 1.9375 -2 4 C-4 4.875 -4 4.875 -6 5 C-6.66 4.34 -7.32 3.68 -8 3 C-9.31747324 2.30251417 -10.64914193 1.63040043 -12 1 C-3.96428571 -1.27678571 -3.96428571 -1.27678571 0 0 Z " transform="translate(329,57)" style="fill: rgb(255, 255, 255);"/>
  <path d="M0 0 C2.31 0.33 4.62 0.66 7 1 C4.46354119 4.10011632 1.84815865 5.0575938 -2 6 C-4.375 5.625 -4.375 5.625 -6 5 C-5.195625 4.731875 -4.39125 4.46375 -3.5625 4.1875 C-2.716875 3.795625 -1.87125 3.40375 -1 3 C-0.67 2.01 -0.34 1.02 0 0 Z " transform="translate(365,193)" style="fill: rgb(255, 255, 255);"/>
  <path d="M0 0 C0.66 0 1.32 0 2 0 C2.66 0.66 3.32 1.32 4 2 C4.66 2 5.32 2 6 2 C6.99 4.97 7.98 7.94 9 11 C5.43279004 8.32459253 2.58873576 5.64340588 0 2 C0 1.34 0 0.68 0 0 Z " transform="translate(13,170)" style="fill: rgb(255, 255, 255);"/>
  <path d="M0 0 C0.99 0.99 1.98 1.98 3 3 C2.67 3.66 2.34 4.32 2 5 C-2.55737263 4.56179109 -5.57653445 4.14958831 -9 1 C-6.33333333 1 -3.66666667 1 -1 1 C-0.67 0.67 -0.34 0.34 0 0 Z " transform="translate(324,194)" style="fill: rgb(255, 255, 255);"/>
  <path d="M0 0 C1.5994614 3.19892281 2.42595236 5.35462576 3.125 8.75 C3.29257812 9.54921875 3.46015625 10.3484375 3.6328125 11.171875 C3.81457031 12.07679688 3.81457031 12.07679688 4 13 C2.35 12.01 0.7 11.02 -1 10 C-0.67 6.7 -0.34 3.4 0 0 Z " transform="translate(699,171)" style="fill: rgb(255, 255, 255);"/>
  <path d="M0 0 C3.4375 0.8125 3.4375 0.8125 7 2 C7.33 2.99 7.66 3.98 8 5 C8.99 5 9.98 5 11 5 C11.33 5.99 11.66 6.98 12 8 C7.44328408 6.48109469 3.68276708 4.04597738 0 1 C0 0.67 0 0.34 0 0 Z " transform="translate(709,248)" style="fill: rgb(255, 255, 255);"/>
  <path d="M0 0 C0.66 0.33 1.32 0.66 2 1 C2 1.66 2 2.32 2 3 C2.99 3.33 3.98 3.66 5 4 C5 4.66 5 5.32 5 6 C1.7 6 -1.6 6 -5 6 C-2 4 -2 4 0 4 C0 2.68 0 1.36 0 0 Z " transform="translate(529,81)" style="fill: rgb(255, 255, 255);"/>
  <path d="M0 0 C1.13199353 0.9080162 2.25532363 1.82683826 3.375 2.75 C4.00148438 3.26046875 4.62796875 3.7709375 5.2734375 4.296875 C7.08312318 6.08199481 8.00117455 7.67949644 9 10 C8.01 10.99 7.02 11.98 6 13 C6.1546875 11.9171875 6.1546875 11.9171875 6.3125 10.8125 C5.87533463 6.87801168 3.83620357 5.62867648 1 3 C0.67 2.01 0.34 1.02 0 0 Z " transform="translate(579,166)" style="fill: rgb(255, 255, 255);"/>
  <path d="M0 0 C0.33 0 0.66 0 1 0 C2.42857143 8.57142857 2.42857143 8.57142857 0 12 C0.66 12.33 1.32 12.66 2 13 C1.01 13 0.02 13 -1 13 C-2.0070238 7.96488101 -1.97387813 4.76052962 0 0 Z " transform="translate(212,24)" style="fill: rgb(255, 255, 255);"/>
  <path d="M0 0 C3 -0.3125 3 -0.3125 6 0 C6.66 0.66 7.32 1.32 8 2 C1.71428571 4.42857143 1.71428571 4.42857143 -2 3 C-1.34 2.01 -0.68 1.02 0 0 Z " transform="translate(810,236)" style="fill: rgb(255, 255, 255);"/>
  <path d="M0 0 C5.49152542 0.61016949 5.49152542 0.61016949 7.875 2.4375 C9 4 9 4 9 6 C5.06326356 4.68775452 2.77280706 3.08089673 0 0 Z " transform="translate(27,185)" style="fill: rgb(255, 255, 255);"/>
  <path d="M0 0 C1.3921875 0.2784375 1.3921875 0.2784375 2.8125 0.5625 C6.01343771 1.24123881 6.01343771 1.24123881 9 0 C10.32 1.65 11.64 3.3 13 5 C11.20620902 4.55005243 9.41501072 4.08975857 7.625 3.625 C6.62726562 3.36976563 5.62953125 3.11453125 4.6015625 2.8515625 C2 2 2 2 0 0 Z " transform="translate(737,264)" style="fill: rgb(255, 255, 255);"/>
  <path d="M0 0 C0.99 0 1.98 0 3 0 C2.1875 3.4375 2.1875 3.4375 1 7 C0.01 7.33 -0.98 7.66 -2 8 C-2.33 7.01 -2.66 6.02 -3 5 C-2.34 5 -1.68 5 -1 5 C-0.67 3.35 -0.34 1.7 0 0 Z " transform="translate(869,192)" style="fill: rgb(255, 255, 255);"/>
  <path d="M0 0 C1.32 0.33 2.64 0.66 4 1 C1.69 3.64 -0.62 6.28 -3 9 C-3.33 8.34 -3.66 7.68 -4 7 C-3.67 6.01 -3.34 5.02 -3 4 C-2.34 4 -1.68 4 -1 4 C-0.67 2.68 -0.34 1.36 0 0 Z " transform="translate(571,89)" style="fill: rgb(255, 255, 255);"/>
  <path d="M0 0 C0.95412881 2.57614778 1.01981848 3.91676239 0.375 6.625 C-1.33984343 9.58700229 -2.77611813 10.06677104 -6 11 C-5.47599609 10.18595703 -5.47599609 10.18595703 -4.94140625 9.35546875 C-4.25884766 8.28232422 -4.25884766 8.28232422 -3.5625 7.1875 C-3.11003906 6.47980469 -2.65757812 5.77210938 -2.19140625 5.04296875 C-0.85913661 2.91865448 -0.85913661 2.91865448 0 0 Z " transform="translate(385,153)" style="fill: rgb(255, 255, 255);"/>
  <path d="M0 0 C2 0.8125 2 0.8125 5 2.8125 C4.67 3.4725 4.34 4.1325 4 4.8125 C2.35 3.8225 0.7 2.8325 -1 1.8125 C-1 2.4725 -1 3.1325 -1 3.8125 C-2.32 3.4825 -3.64 3.1525 -5 2.8125 C-2.55813953 -0.23982558 -2.55813953 -0.23982558 0 0 Z " transform="translate(564,151.1875)" style="fill: rgb(255, 255, 255);"/>
  <path d="M0 0 C0.33 0.66 0.66 1.32 1 2 C3.3140622 2.73075648 5.64828869 3.40138258 8 4 C5.8614515 6.1385485 4.86724686 6.42655063 2 7 C0 4 0 4 0 0 Z " transform="translate(313,89)" style="fill: rgb(255, 255, 255);"/>
  <path d="M0 0 C4.21912747 0.4794463 6.79663178 1.16625119 10 4 C3.47692308 3.38461538 3.47692308 3.38461538 1.0625 1.4375 C0.711875 0.963125 0.36125 0.48875 0 0 Z " transform="translate(390,57)" style="fill: rgb(255, 255, 255);"/>
  <path d="M0 0 C-2.3125 2.0625 -2.3125 2.0625 -5 4 C-5.99 3.67 -6.98 3.34 -8 3 C-5.45189726 -0.82215411 -4.39145359 -1.46381786 0 0 Z " transform="translate(577,187)" style="fill: rgb(255, 255, 255);"/>
  <path d="M0 0 C1.37562854 1.28965176 2.70766393 2.62689293 4 4 C4 4.66 4 5.32 4 6 C1.08482708 4.92598892 -0.77810176 4.22189824 -3 2 C-2.01 1.34 -1.02 0.68 0 0 Z " transform="translate(487,186)" style="fill: rgb(255, 255, 255);"/>
  <path d="M0 0 C2.64752004 2.57784846 4.94432065 4.91648098 7 8 C4.625 7.375 4.625 7.375 2 6 C0.6875 2.875 0.6875 2.875 0 0 Z " transform="translate(715,209)" style="fill: rgb(255, 255, 255);"/>
  <path d="M0 0 C6.875 3.75 6.875 3.75 8 6 C5.125 5.8125 5.125 5.8125 2 5 C0.625 2.4375 0.625 2.4375 0 0 Z " transform="translate(566,58)" style="fill: rgb(255, 255, 255);"/>
  <path d="" transform="translate(0,0)" style="fill: rgb(255, 255, 255);"/>
  <path d="" transform="translate(0,0)" style="fill: rgb(255, 255, 255);"/>
  <path d="" transform="translate(0,0)" style="fill: rgb(255, 255, 255);"/>
  <path d="" transform="translate(0,0)" style="fill: rgb(255, 255, 255);"/>
  <path d="" transform="translate(0,0)" style="fill: rgb(255, 255, 255);"/>
  <path d="" transform="translate(0,0)" style="fill: rgb(255, 255, 255);"/>
  <path d="" transform="translate(0,0)" style="fill: rgb(255, 255, 255);"/>
  <path d="" transform="translate(0,0)" style="fill: rgb(255, 255, 255);"/>
  <path d="" transform="translate(0,0)" style="fill: rgb(255, 255, 255);"/>
  <path d="" transform="translate(0,0)" style="fill: rgb(255, 255, 255);"/>
  <path d="" transform="translate(0,0)" style="fill: rgb(255, 255, 255);"/>
  <path d="" transform="translate(0,0)" style="fill: rgb(255, 255, 255);"/>
  <path d="" transform="translate(0,0)" style="fill: rgb(255, 255, 255);"/>
  <path d="" transform="translate(0,0)" style="fill: rgb(255, 255, 255);"/>
  <path d="" transform="translate(0,0)" style="fill: rgb(255, 255, 255);"/>
  <path d="" transform="translate(0,0)" style="fill: rgb(255, 255, 255);"/>
  <path d="" transform="translate(0,0)" style="fill: rgb(255, 255, 255);"/>
  <path d="" transform="translate(0,0)" style="fill: rgb(255, 255, 255);"/>
  <path d="" transform="translate(0,0)" style="fill: rgb(255, 255, 255);"/>
  <path d="" transform="translate(0,0)" style="fill: rgb(255, 255, 255);"/>
  <path d="" transform="translate(0,0)" style="fill: rgb(255, 255, 255);"/>
  <path d="" transform="translate(0,0)" style="fill: rgb(255, 255, 255);"/>
  <path d="" transform="translate(0,0)" style="fill: rgb(255, 255, 255);"/>
  <path d="" transform="translate(0,0)" style="fill: rgb(255, 255, 255);"/>
  <path d="" transform="translate(0,0)" style="fill: rgb(255, 255, 255);"/>
  <path d="" transform="translate(0,0)" style="fill: rgb(255, 255, 255);"/>
  <path d="" transform="translate(0,0)" style="fill: rgb(255, 255, 255);"/>
  <path d="" transform="translate(0,0)" style="fill: rgb(255, 255, 255);"/>
  <path d="" transform="translate(0,0)" style="fill: rgb(255, 255, 255);"/>
  <path d="" transform="translate(0,0)" style="fill: rgb(255, 255, 255);"/>
  <path d="" transform="translate(0,0)" style="fill: rgb(255, 255, 255);"/>
  <path d="" transform="translate(0,0)" style="fill: rgb(255, 255, 255);"/>
  <path d="" transform="translate(0,0)" style="fill: rgb(255, 255, 255);"/>
  <path d="" transform="translate(0,0)" style="fill: rgb(255, 255, 255);"/>
  <path d="" transform="translate(0,0)" style="fill: rgb(255, 255, 255);"/>
  <path d="" transform="translate(0,0)" style="fill: rgb(255, 255, 255);"/>
  <path d="" transform="translate(0,0)" style="fill: rgb(255, 255, 255);"/>
  <path d="" transform="translate(0,0)" style="fill: rgb(255, 255, 255);"/>
  <path d="" transform="translate(0,0)" style="fill: rgb(255, 255, 255);"/>
  <path d="" transform="translate(0,0)" style="fill: rgb(255, 255, 255);"/>
  <path d="" transform="translate(0,0)" style="fill: rgb(255, 255, 255);"/>
  <path d="" transform="translate(0,0)" style="fill: rgb(255, 255, 255);"/>
  <path d="" transform="translate(0,0)" style="fill: rgb(255, 255, 255);"/>
</svg>